<?xml version="1.0" encoding="utf-8" ?><svg xmlns="http://www.w3.org/2000/svg" xmlns:xlink="http://www.w3.org/1999/xlink" width="500" height="500" viewBox="0 0 500 500"><path fill="#2B2C2A" d="M250.645 25.6401C251.141 25.6019 251.638 25.5734 252.135 25.5548C257.344 25.3751 265.517 25.8316 270.768 26.1753C321.87 29.6905 370.228 50.5934 407.801 85.4077C441.358 116.277 464.798 156.571 475.043 201.001C480.17 222.541 482.208 245.763 480.737 267.902C477.378 320.081 455.816 369.428 419.808 407.34C382.147 447.393 327.014 472.959 272.138 476.162C267.38 476.439 262.637 476.737 257.873 476.884C205.908 477.764 155.16 461.128 113.8 429.656C106.236 423.906 99.1234 417.498 92.2174 410.992C89.8114 408.726 87.655 406.112 85.3613 403.693C56.0339 372.166 36.7314 332.638 29.9025 290.124C27.1211 273.286 26.2442 255.117 27.2747 238.058C29.8051 195.893 44.1179 155.285 68.5851 120.851C80.0183 104.867 93.3619 90.4276 108.454 77.8538C139.577 51.8286 177.147 34.6876 217.202 28.2398C228.846 26.3805 239.012 26.0639 250.645 25.6401ZM416.89 341.267C415.724 341.3 413.934 341.254 412.879 341.589C413.171 342.215 414.111 342.274 414.726 342.284C415.401 341.642 415.999 341.548 416.89 341.267Z"/><path fill="#FEFEFE" d="M248.16 30.6394C255.581 30.2158 264.341 30.6853 271.708 31.2721C313.871 34.6324 354.194 49.9812 387.919 75.5078C424.782 103.433 451.96 142.215 465.628 186.395C472.482 208.097 475.909 230.479 475.932 253.25C476.003 301.962 459.812 349.303 429.927 387.769C401.77 424.063 358.943 452.611 314.352 463.959C310.166 465.024 301.931 467.138 297.866 467.642C297.503 467.349 297.694 467.529 297.298 467.082C295.478 467.283 295.666 468.001 294.343 468.354C293.307 468.63 291.334 468.907 290.19 469.085C280.294 470.663 270.304 471.576 260.287 471.819C259.887 471.85 259.486 471.872 259.085 471.886C245.8 472.467 232.358 471.181 219.251 469.092C174.717 462.348 133.27 442.273 100.368 411.512C69.0849 382.273 47.1917 344.401 37.4664 302.701C34.3714 288.62 32.572 274.286 32.0908 259.878C30.07 201.419 51.2715 144.537 91.0622 101.663C132.975 56.6697 186.828 32.7764 248.16 30.6394ZM416.89 341.267C415.724 341.3 413.934 341.254 412.879 341.589C413.171 342.215 414.111 342.274 414.726 342.284C415.401 341.642 415.999 341.548 416.89 341.267Z"/><path fill="#2B2C2A" d="M246.713 38.1104L247.015 38.0939C300.724 35.4043 358.755 56.8514 398.42 93.0434C441.169 131.745 466.72 185.896 469.414 243.499C471.691 291.317 457.728 338.5 429.796 377.378C420.114 390.794 407.808 403.989 395.156 414.588C365.711 439.11 330.249 455.322 292.439 461.546C281.568 463.33 273.636 463.643 262.688 464.09C262.2 464.124 261.713 464.153 261.224 464.175C254.881 464.454 248.41 464.206 242.074 463.873C201.334 461.757 162.035 448.097 128.767 424.486C110.426 411.611 94.3045 396.302 80.8367 378.351C55.791 344.74 41.422 304.38 39.5932 262.504C37.2141 213.002 52.0988 164.211 81.7038 124.468C92.3471 110.148 104.803 97.2899 118.623 86.0311C154.938 56.4935 199.928 39.6621 246.713 38.1104ZM416.89 341.267C415.724 341.3 413.934 341.254 412.879 341.589C413.171 342.215 414.111 342.274 414.726 342.284C415.401 341.642 415.999 341.548 416.89 341.267Z"/><path fill="#FEFEFE" d="M282.997 459.042C241.036 464.435 198.414 457.442 160.376 438.923C141.588 429.576 125.036 418.38 109.45 404.276C55.1361 355.125 31.8783 278.595 47.8949 206.906C51.8249 189.918 57.7636 173.457 65.5855 157.873C90.7696 107.983 134.654 70.0715 187.673 52.4021C233.585 37.319 283.265 38.3254 328.529 55.2555C345.9 61.7632 362.118 70.1614 377.226 80.9795C413.546 107.042 440.737 143.879 454.942 186.266C470.363 232.205 469.493 282.054 452.477 327.427C447.792 339.887 441.266 352.613 434.228 363.9C413.185 397.315 383.013 424.006 347.28 440.816C337.102 445.642 326.376 449.347 315.693 452.853C315.888 445.856 314.051 442.192 311.452 435.873C305.582 421.604 310.932 406.048 312.029 391.346C312.52 384.775 311.878 378.085 312.31 371.626C312.885 363.029 321.204 359.507 328.669 358.935C340.669 357.619 356.491 356.461 362.096 343.855C367.138 332.517 362.162 327.704 356.995 318.579C354.404 314.005 362.879 311.623 364.062 307.644C365.104 304.143 364.776 302.653 363.433 299.16C364.899 297.754 366.084 296.794 367.139 294.935C370.315 289.534 364.68 283.807 367.098 278.318C368.031 275.915 370.625 275.747 372.829 275.853C377.181 276.063 381.956 276.351 386.037 274.444C396.716 269.453 389.057 254.573 386.081 247.005C384.214 242.259 382.166 237.673 380.135 233.119C375.674 223.12 370.199 213.71 366.2 203.496C364.238 198.541 366.063 192.703 364.512 187.478C360.854 175.15 354.392 163.898 349.977 151.926C357.811 142.138 355.755 121.224 345.065 114.052C344.475 113.655 340.677 111.212 340.539 111.018C337.017 106.05 334.661 105.136 329.152 103.292C329.338 101.65 329.609 99.8203 329.266 98.1995C328.162 92.9907 319.834 96.659 316.59 97.7544C314.25 95.8884 311.186 94.3042 308.451 93.1233C295.777 87.6525 286.272 89.2083 274.009 94.0016C262.579 87.9685 254.679 85.4097 241.469 89.4347C238.663 90.2897 235.707 92.3379 232.895 92.8085C230.466 93.2149 226.679 91.7558 224.089 91.5442C222.31 91.4024 220.219 91.6342 218.479 91.9953C213.047 93.0631 207.919 94.7104 202.75 96.6341C194.972 99.5281 190.378 101.724 185.587 108.643C181.356 109.363 177.796 109.791 174.274 112.477C168.927 116.555 165.397 122.396 164.359 129.001C160.453 130.099 157.839 130.97 154.821 133.57C150.525 137.27 151.067 141.972 149.122 146.257C147.75 149.279 142.927 151.855 141.169 155.71C138.187 162.249 136.726 167.902 137.097 175.168C137.156 177.092 137.184 181.488 136.744 183.238C135.997 186.202 133.835 188.866 133.543 192.234C133.256 195.545 134.741 199.014 134.743 202.121C134.68 205.95 133.718 209.623 133.541 213.468C133.233 220.173 133.994 226.905 136.716 233.096C137.909 236.23 140.66 239.812 141.803 242.889C144.056 248.948 146.063 253.577 150.292 258.541C151.704 260.197 152.668 262.754 154.279 264.532C152.169 269.665 148.474 277.837 148.762 283.469C149.389 295.731 155.67 307.917 163.113 317.477C165.552 320.61 169.692 324.434 172.576 327.222C172.292 350.663 170.891 366.142 163.471 388.161C160.359 381.886 158.002 382.548 152.467 379.003C146.697 375.308 141.073 370.963 135.641 366.777C136.062 366.34 136.466 365.886 136.851 365.416C144.154 356.35 142.665 341.873 136.673 332.525C135.895 331.311 134.851 329.089 133.068 329.682C130.756 330.453 129.175 333.661 128.031 335.646C123.661 343.23 123.744 350.391 126.181 358.633C121.399 354.373 117.63 349.883 113.114 345.431C124.863 339.372 126.899 325.387 122.321 313.925C121.969 313.043 120.732 309.426 119.549 309.544C117.062 309.792 114.475 312.035 112.69 313.7C107.006 319.41 104.413 326.17 104.292 334.17C103.023 331.719 101.447 329.324 100.163 326.9C98.6697 324.081 97.2564 321.079 95.8684 318.198C108.144 313.514 111.142 301.786 108.863 289.724C108.426 287.408 107.931 284.041 105.88 282.661C102.812 282.197 97.7945 287.17 95.9537 289.355C92.4231 293.544 90.83 297.974 89.4208 303.13C88.1153 297.536 86.2225 292.305 85.1126 286.665C87.924 286.567 90.6935 285.953 93.2824 284.852C98.106 282.793 101.893 278.872 103.783 273.98C105.973 268.42 106.288 258.548 103.927 253.039C102.584 253.169 101.434 253.381 100.189 253.866C90.6492 257.588 86.6343 263.235 82.5236 272.077C82.5281 270.646 82.4027 269.217 82.2419 267.795C81.747 263.419 81.6028 259.022 81.2251 254.638C97.0896 254.341 107.528 245.703 108.086 229.286C108.229 226.57 105.456 226.71 103.54 226.8C93.8458 227.256 88.442 232.113 82.3232 239.07C83.3854 233.981 84.0968 227.686 85.1777 222.163C92.6402 222.956 98.9763 223.351 106.014 219.224C110.286 216.718 118.846 207.302 115.629 201.482C114.992 200.331 111.193 200.187 109.779 200.098C101.306 199.565 95.0824 202.535 88.9003 208.133C90.5039 203.387 92.3923 198.476 94.06 193.706C102.38 196.461 111.024 197.015 118.713 192.022C122.882 189.315 136.343 174.006 123.963 173.138C112.629 172.343 107.278 174.812 98.7231 181.978C100.471 177.724 102.754 173.089 104.902 169.03C120.966 168.468 130.408 152.722 129.207 137.692C129.188 135.016 123.415 136.135 121.825 136.699C108.229 141.521 98.7149 153.149 102.9 167.61C99.9725 172.962 97.0464 176.936 94.2043 182.899C93.9722 179.879 94.0581 174.885 93.4653 171.881C92.0481 166.331 89.4957 158.928 85.2858 154.953C83.6164 153.377 81.0265 156.971 80.3718 158.386C76.9538 165.772 74.6575 174.581 77.207 182.584C79.4188 189.527 82.1558 191.254 88.2029 194.385C87.045 199.404 83.8847 205.538 82.3277 210.603L81.2358 209.929C79.5388 199.267 75.6496 188.961 65.8633 183.169C64.306 184.87 63.644 186.02 62.9247 188.194C57.728 203.902 62.3883 217.566 79.05 221.737C77.8397 228.473 76.039 237.445 75.5846 244.164C72.5184 235.79 68.8383 228.178 60.3226 224.235C58.7385 223.501 55.0216 222.041 53.3015 222.548C51.9326 222.952 51.9831 227.138 51.9363 228.35C51.7291 233.717 52.4278 239.254 54.9844 244.051C57.8308 249.513 61.9151 252.694 67.7645 254.552C70.28 255.35 72.3567 255.526 74.9677 255.668C75.1427 261.756 75.2799 267.47 75.8529 273.538C70.8409 265.808 65.6013 259.985 56.1009 257.73C54.3984 257.326 51.385 256.8 49.8415 257.638C48.6963 259.137 49.0742 262.332 49.3149 264.122C50.9048 275.944 59.6779 286.136 72.1426 286.205C73.995 286.215 75.7254 286.11 77.5734 285.989C78.6718 292.322 79.6363 296.055 81.0741 302.153C75.3793 296.68 69.3701 292.955 61.1941 293.088C57.4403 293.15 56.7722 294.524 57.3676 298.241C58.4803 305.186 63.1579 311.42 68.7265 315.511C74.1338 319.396 80.4984 319.208 86.7323 318.08C87.1565 318.003 87.5788 317.916 87.9989 317.819C89.0692 321.531 91.4063 326.22 93.2543 329.7C86.1305 326.167 81.6244 324.073 73.1785 324.897C66.5902 325.541 65.621 326.623 68.803 333.539C73.6346 344.04 88.0028 351.081 98.8873 345.579C99.9457 345.053 100.96 344.441 101.92 343.751C104.499 347.362 109.952 355.09 112.748 358.294C105.833 355.489 98.4081 354.845 91.4548 357.998C87.593 359.75 83.4525 361.265 86.7681 365.868C94.59 376.727 112.176 378.623 122.757 370.956C123.382 370.511 123.991 370.043 124.584 369.555C128.824 372.782 132.767 376.983 137.127 379.91C143.708 384.328 153.483 393.727 161.738 393.088C160.548 398.027 156.554 406.11 158.954 410.349C160.838 413.677 167.076 415.802 170.467 417.438C174.536 419.402 178.764 421.067 182.734 423.315C194.856 430.181 205.883 438.809 218.434 444.841C225.439 448.207 233.384 451.402 240.977 453.101C253.311 455.86 269.743 458.663 282.427 458.253L282.997 459.042ZM416.89 341.267C415.724 341.3 413.934 341.254 412.879 341.589C413.171 342.215 414.111 342.274 414.726 342.284C415.401 341.642 415.999 341.548 416.89 341.267Z"/><path fill="#2B2C2A" d="M378.175 132.045C381.225 131.855 384.284 132.259 387.18 133.235C394.497 135.711 400.543 140.97 404.009 147.873C406.261 152.492 406.587 157.815 404.916 162.674C405.492 163.789 406.186 164.971 406.861 166.039C409.609 170.39 411.95 174.949 414.521 179.394C412.923 169.745 415.408 155.303 423.787 149.257C426.001 150.764 427.175 152.435 428.292 154.819C434.313 167.668 434.841 183.879 420.354 190.821C420.994 192.176 421.899 195.07 422.495 196.611L427.627 209.888C427.803 199.294 431.748 185.514 441.814 180.165C444.28 178.855 445.895 184.488 446.339 186.142C448.372 193.707 448.92 202.099 444.889 209.098C441.341 215.259 436.767 217.326 430.293 219.128C432.156 227.047 432.865 233.355 434.338 241.19C434.473 240.537 434.633 239.889 434.818 239.248C436.778 232.587 441.658 224.402 448.042 221.342C450.009 220.399 454.374 218.307 456.476 218.929C457.365 219.705 457.519 220.866 457.618 221.99C458.783 235.214 454.727 249.259 440.181 252.402C438.385 252.791 436.602 252.902 434.744 253.049C434.889 259.34 435.165 265.973 434.237 272.195C438.759 263.329 445.565 256.148 455.868 254.57C459.816 253.965 461.835 253.791 461.664 258.63C461.392 266.103 458.156 273.16 452.672 278.244C446.545 283.845 440.876 284.204 433.093 283.843C432.268 290.546 431.678 294.131 429.824 300.597C435.363 294.606 443.649 289.93 452.073 290.723C455.463 291.042 454.029 297.273 453.45 299.385C451.631 306.029 446.394 311.724 440.557 315.173C435.41 318.178 429.345 317.779 423.829 316.185C422.095 320.152 420.683 324.802 418.923 329.032C421.651 327.243 424.189 325.755 427.531 324.604C431.838 323.121 439.761 322.451 444.099 324.077C444.721 324.311 445.418 325.164 445.564 325.839C446.081 328.228 443.454 332.904 442.327 334.867C439.351 340.05 432.94 344.654 427.136 346.023C421.381 347.381 416.385 346.718 411.328 343.65C408.516 348.488 404.702 354.187 401.637 358.926C411.149 354.516 419.47 353.596 428.524 359.623C431.201 361.405 430.318 364.19 428.481 366.177C423.385 371.57 416.529 375.278 409.059 375.752C401.781 376.214 397.394 375.314 391.882 370.616C388.011 375.62 384.369 379.452 380.017 384.013C382.706 383.316 385.055 382.946 388.056 382.443C397.753 380.819 410.49 384.381 401.156 396.303C398.369 399.863 391.897 401.461 387.254 401.645C379.884 401.938 373.631 400.452 368.016 395.201C359.844 402.025 351.969 408.445 342.913 414.106C338.318 417.26 329.145 424.638 327.198 414.967C327.506 413.622 327.866 412.219 328.94 411.288C333.86 407.025 340.51 403.823 345.846 400.188C349.776 397.51 354.03 394.207 357.848 391.377C347.361 380.073 349.488 365.029 359.709 354.359C360.301 353.74 360.878 353.51 361.728 353.566C362.928 354.076 363.595 354.987 364.284 356.08C369.67 364.631 369.999 373.234 367.989 382.776C371.952 378.53 376.621 374.481 380.798 370.007C379.967 369.51 379.164 368.968 378.393 368.383C367.863 360.373 369.993 344.189 375.67 333.79C377.689 330.093 382.508 336.604 383.723 338.156C390.071 346.269 390.282 351.896 389.075 361.535C390.161 359.812 392.537 356.953 393.89 355.175C396.175 352.116 398.428 349.032 400.649 345.926C389.32 341.004 385.241 331.699 387.299 319.523C387.728 316.987 389.233 311.777 390.844 309.824C393.528 308.492 397.391 312.285 399.148 314.097C404.812 319.938 407.66 326.039 407.613 334.243C410.919 328.675 413.115 323.306 415.494 317.313C414.962 317.154 414.435 316.982 413.911 316.798C403.035 312.94 399.468 299.787 401.301 289.531C401.7 287.299 401.923 282.645 404.266 281.625C407.234 281.386 411.684 285.228 413.659 287.232C417.633 291.264 419.742 295.97 421.362 301.296C421.843 298.967 422.738 296.479 423.369 294.155C424.205 291.074 424.99 287.994 425.772 284.899C411.788 283.818 404.453 275.818 404.278 261.485C404.25 259.137 404.372 253.417 405.997 251.828C408.425 251.004 415.5 255.207 417.591 256.648C422.125 259.774 424.951 265.153 427.673 269.794C427.784 264.066 428.318 257.931 428.484 252.001C427.976 252.005 427.468 252.001 426.96 251.989C419.032 251.794 412.763 249.961 407.14 244.038C402.778 239.443 400.999 232.989 401.07 226.72C401.051 226.315 401.268 224.658 401.738 224.49C405.988 222.969 412.841 225.174 416.394 227.075C420.901 229.488 423.799 232.846 426.875 236.364C426.226 230.165 425.043 224.397 423.844 218.293C416.648 220.01 410.386 220.283 403.477 216.848C397.607 213.864 393.534 208.879 391.534 202.62C390.168 198.344 392.466 197.382 396.132 196.838C406.165 195.35 412.226 199.007 420.02 204.666C418.04 200.098 416.457 194.909 414.289 189.913C404.204 192.522 395.017 192.871 386.479 185.967C382.134 182.575 379.414 177.671 378.502 172.256C378.02 169.396 381.612 168.583 383.719 168.494C394.226 168.049 401.829 170.729 409.624 177.726C407.738 173.673 404.245 167.758 402.792 164.059C400.729 163.896 398.808 163.623 396.775 163.25C383.749 160.856 375.376 144.311 378.175 132.045ZM416.89 341.267C415.724 341.3 413.934 341.254 412.879 341.589C413.171 342.215 414.111 342.274 414.726 342.284C415.401 341.642 415.999 341.548 416.89 341.267Z"/><defs><linearGradient id="gradient_0" gradientUnits="userSpaceOnUse" x1="416.75366" y1="354.76181" x2="326.39819" y2="234.11009"><stop offset="0" stop-color="#A0B586"/><stop offset="1" stop-color="#AEB6A6"/></linearGradient></defs><path fill="url(#gradient_0)" d="M408.479 171.481C410.038 172.504 412.178 177.657 413.094 179.475C420.709 194.823 426.676 211.1 430.096 227.927C444.509 298.845 405.649 366.189 348.88 406.38C344.601 409.409 338.54 414.682 333.535 415.715C332.717 415.289 332.372 415.189 331.801 414.452C331.707 412.394 341.641 406.574 343.493 405.353C365.096 391.12 386.634 371.145 401.121 349.692C428.794 308.71 439.511 255.053 423.494 207.573C422.312 202.957 419.77 197.229 418.324 192.944C417.251 189.764 408.517 173.059 408.479 171.481Z"/><path fill="#99B682" d="M457.303 256.089C457.832 256.197 458.465 256.293 458.938 256.563C459.567 256.924 459.841 257.37 459.998 258.063C460.767 261.445 458.117 266.606 456.431 269.429C451.87 277.062 445.431 279.456 437.15 281.575C436.507 281.756 435.919 281.865 435.256 281.945C434.615 281.662 434.579 281.638 434.227 281.034C434.114 276.961 438.089 269.422 440.526 266.169C444.367 261.041 450.941 257.013 457.303 256.089Z"/><path fill="#1B3013" d="M454.668 262.948C454.68 263.721 454.348 264.297 454.025 264.988C450.704 272.091 442.209 278.584 434.965 281.186C434.935 280.301 437.685 278.676 438.401 278.17C444.495 273.863 449.783 268.568 454.668 262.948Z"/><path fill="#99B682" d="M435.701 249.534L435.244 249.491C434.909 248.144 435.61 244.8 435.972 243.389C438.895 231.99 444.863 224.897 455.792 220.712C457.908 237.171 450.64 244.707 435.998 250.588C435.822 250.659 435.536 250.569 435.354 250.525L435.263 250.142C435.618 249.863 435.496 249.876 435.891 249.792L435.701 249.534Z"/><path fill="#1B3013" d="M450.891 229.254C449.851 232.38 448.714 235.535 447.036 238.38C444.943 241.928 439.764 248.312 435.891 249.792L435.701 249.534C444.384 241.334 444.742 238.052 450.891 229.254Z"/><path fill="#99B682" d="M431.435 216.23L430.469 216.609L430.053 216.412C429.187 213.702 429.647 207.82 430.1 205.013C431.468 196.532 435.452 186.977 442.722 181.874C446.632 193.85 445.99 207.692 434.451 214.871C433.582 215.411 432.821 216.244 431.759 216.178L431.435 216.23Z"/><defs><linearGradient id="gradient_1" gradientUnits="userSpaceOnUse" x1="438.20349" y1="204.94594" x2="433.76089" y2="204.04919"><stop offset="0" stop-color="#122A11"/><stop offset="1" stop-color="#363B19"/></linearGradient></defs><path fill="url(#gradient_1)" d="M439.621 191.689C441.039 202.625 437.837 207.687 431.759 216.178L431.435 216.23C431.701 214.559 434.82 209.721 435.671 207.517C437.749 202.13 438.709 197.32 439.621 191.689Z"/><path fill="#99B682" d="M412.741 340.394C417.544 332.363 420.922 329.14 430.317 326.747C434.838 325.596 439.591 325.162 444.219 326.139C442.9 330.012 441.778 332.798 438.838 335.775C432.701 341.988 423.134 343.839 414.726 342.284C415.401 341.642 415.999 341.548 416.89 341.267L417.765 341.09C417.087 340.576 417.013 340.439 416.48 339.798L412.741 340.394Z"/><path fill="#1B3013" d="M416.48 339.798C421.46 338.707 424.781 337.771 429.446 335.372C431.533 334.299 434.713 332.375 436.763 331.558C430.063 338.015 426.85 339.002 417.765 341.09C417.087 340.576 417.013 340.439 416.48 339.798Z"/><path fill="#99B682" d="M415.671 358.109C420.355 357.741 424.839 359.014 428.846 361.361C422.71 368.347 416.083 371.438 406.812 372.128C402.458 372.652 397.609 371.199 393.795 369.205C394.334 368.351 394.961 367.592 395.63 366.838C401.052 360.729 407.693 358.594 415.671 358.109Z"/><path fill="#1B3013" d="M400.711 368.281C408.994 366.972 412.749 365.625 420.71 363.619C416.274 366.624 407.911 369.268 402.549 369.562C401.58 369.227 401.076 369.213 400.711 368.281Z"/><path fill="#364928" d="M394.833 369.584C397.043 368.848 398.382 368.442 400.711 368.281C401.076 369.213 401.58 369.227 402.549 369.562C399.972 369.932 397.411 369.84 394.833 369.584Z"/><path fill="#99B682" d="M381.002 171.479C390.538 170.123 401.042 172.401 407.904 179.381C409.679 181.187 412.164 183.848 412.584 186.432L412.69 187.068L412.861 187.421L412.43 187.693C396.375 188.664 388.44 186.221 381.002 171.479Z"/><path fill="#1B3013" d="M387.888 177.104L401.326 182.06C403.897 182.999 407.416 184.177 409.798 185.323L408.552 185.908C400.848 183.815 394.195 182.071 387.888 177.104Z"/><path fill="#1B3013" d="M409.798 185.323C410.739 185.662 411.668 186.032 412.584 186.432L412.69 187.068C411.347 186.729 409.896 186.287 408.552 185.908L409.798 185.323Z"/><path fill="#99B682" d="M379.781 134.139C385.3 135.291 387.384 135.646 392.223 138.725C401.415 144.575 402.392 151.314 402.771 161.403C399.814 154.534 394.104 148.022 388.523 143.085L388.339 143.353C389.45 145.579 394.247 150.612 395.904 152.68C398.185 155.528 399.79 157.828 401.579 161.054C387.58 157.963 381.009 147.865 379.781 134.139Z"/><path fill="#99B682" d="M423.726 151.497C427.794 156.44 429.577 165.307 428.994 171.634C428.414 177.92 425.189 183.278 420.726 187.629L420.103 188.306L419.71 188.269C418.95 187.3 418.686 185.759 418.356 184.513C413.841 173.541 417.3 160.919 423.726 151.497Z"/><path fill="#1B3013" d="M422.366 165.79C423.865 171.272 423.516 181.876 420.259 186.501L420.315 184.652C422.102 180.909 422.331 170.291 422.366 165.79Z"/><path fill="#A1AF90" d="M418.356 184.513C419.982 186.21 418.389 185.468 419.522 186.46C420.116 185.633 419.452 184.931 420.123 184.242L420.315 184.652L420.259 186.501C420.458 187.183 420.36 187.056 420.726 187.629L420.103 188.306L419.71 188.269C418.95 187.3 418.686 185.759 418.356 184.513Z"/><path fill="#99B682" d="M406.997 253.944C407.601 254.165 408.202 254.391 408.802 254.623C417.258 257.904 423.235 265.191 425.56 273.882C426.041 275.677 426.928 279.713 426.242 281.455L426.569 281.611C426.504 282.172 426.53 282.073 426.359 282.625L426.162 282.412C424.707 282.529 421.958 281.276 420.59 280.716C408.299 275.677 407.044 265.644 406.997 253.944Z"/><path fill="#1B3013" d="M411.167 263.77C416.319 270.095 419.256 274.468 425.035 280.566L424.421 281.033C418.132 276.525 413.728 271.059 411.167 263.77Z"/><path fill="#0D1D0B" d="M425.035 280.566L426.242 281.455L426.569 281.611C426.504 282.172 426.53 282.073 426.359 282.625L426.162 282.412C425.79 282.067 424.857 281.375 424.421 281.033L425.035 280.566Z"/><path fill="#99B682" d="M392.293 311.128C393.412 312.021 394.607 312.963 395.679 313.901C400.932 318.509 404.138 325.017 404.59 331.991C404.788 334.901 404.101 340.674 402.255 342.804L401.94 342.686L401.131 343.141L400.703 343.106C398.117 341.414 393.451 336.021 391.994 333.369C388.532 327.07 389.365 317.427 392.293 311.128Z"/><path fill="#1B3013" d="M401.131 343.141C400.883 342.012 398.78 337.84 398.178 336.409C396.506 332.416 395.178 328.286 394.21 324.066C398.37 331.611 399.012 335.02 401.94 342.686L401.131 343.141Z"/><path fill="#99B682" d="M390.271 384.352C392.157 384.165 394.054 384.117 395.947 384.207C397.718 384.307 399.98 384.64 401.168 386.102C401.799 386.878 401.99 387.85 401.851 388.826C401.535 391.036 399.808 392.96 398.107 394.288C393.812 397.641 387.952 398.313 382.699 397.69C378.273 397.186 374.328 394.918 370.485 392.83C377.227 387.559 381.715 385.374 390.271 384.352Z"/><path fill="#1B3013" d="M393.061 392.964C389.462 394.152 378.929 396.059 376.899 391.507L377.081 391.096C377.948 390.925 379.692 391.427 380.617 391.669C384.492 392.683 387.711 392.595 391.686 392.236C392.215 392.488 392.575 392.63 393.061 392.964Z"/><path fill="#1B3013" d="M391.686 392.236C392.733 392.21 393.634 392.089 394.599 392.445C394.066 392.896 393.848 392.805 393.061 392.964C392.575 392.63 392.215 392.488 391.686 392.236Z"/><path fill="#99B682" d="M393.618 199.902C402.749 198.085 413.461 199.881 419.393 207.714C421.13 210.009 421.819 212.347 422.691 215.041L422.553 215.609C421.791 216.045 421.509 215.95 420.635 215.9C407.107 216.502 399.269 212.289 393.618 199.902Z"/><path fill="#1B3013" d="M401.414 206.675C403.784 207.373 420.668 213.879 421.98 215.11C421.423 215.104 420.79 214.945 420.228 214.837C413.757 213.429 406.638 210.871 401.414 206.675Z"/><path fill="#A1AF90" d="M421.98 215.11C422.541 214.993 422.304 214.985 422.691 215.041L422.553 215.609C421.791 216.045 421.509 215.95 420.635 215.9L418.933 215.647C419.588 215.392 419.721 215.322 420.228 214.837C420.79 214.945 421.423 215.104 421.98 215.11Z"/><path fill="#99B682" d="M404.696 283.545C416.312 290.262 422.713 301.679 416.737 314.26C416.65 314.444 416.464 314.555 416.31 314.666L415.962 314.569L415.24 314.395C413.582 314.193 409.647 309.178 408.544 307.782C402.581 300.229 402.895 292.451 404.696 283.545Z"/><path fill="#1B3013" d="M408.19 294.254C411.67 298.451 415.775 309.363 415.962 314.569L415.24 314.395C414.225 311.128 413.133 308.422 412.025 305.239C410.69 301.404 409.822 298.062 408.19 294.254Z"/><path fill="#99B682" d="M402.889 226.237C409.266 226.696 415.543 228.357 420.566 232.497C425.438 236.513 427.311 241.355 427.885 247.496C426.213 246.11 424.431 244.851 422.746 243.478C418.438 239.969 414.206 236.298 409.363 233.532C409.967 234.318 410.64 235.066 411.277 235.826C416.341 241.388 423.358 244.95 428.995 249.85C423.202 248.239 416.819 246.877 411.959 243.123C406.527 238.927 403.703 232.923 402.889 226.237Z"/><path fill="#99B682" d="M361.219 356.19C361.327 356.276 361.443 356.352 361.542 356.447C362.01 356.895 362.439 357.765 362.786 358.322C365.815 363.19 366.923 369.432 366.757 375.097C366.591 380.738 364.561 385.427 360.486 389.307C357.919 385.224 355.543 381.003 354.791 376.164C353.599 368.486 356.847 362.224 361.219 356.19Z"/><path fill="#1B3013" d="M358.562 373.135L359.043 373.394C360.739 376.35 361.063 380.982 360.903 384.317L360.504 383.972C359.122 380.563 358.817 376.769 358.562 373.135Z"/><path fill="#99B682" d="M381.71 367.027C372.352 357.228 372.954 346.852 377.626 334.799C383.363 340.214 386.372 345.875 386.782 353.926C386.988 357.979 385.628 364.282 383.257 367.513C382.832 367.751 383.027 367.733 382.702 367.705C382.281 367.355 382.182 367.313 381.71 367.027Z"/><path fill="#1B3013" d="M381.71 367.027C382.054 363.062 378.831 355.902 379.324 351.369L379.546 351.455C380.794 354.312 382.669 364.542 382.702 367.705C382.281 367.355 382.182 367.313 381.71 367.027Z"/><path fill="#99B682" d="M449.883 293.083C450.647 292.989 451.199 292.922 451.954 293.163C452.411 293.695 452.578 293.972 452.59 294.692C452.648 298.099 449.052 303.123 446.786 305.531C441.198 311.466 434.595 313.916 426.55 314.176C436.005 311.12 440.506 308.375 446.029 300.009L446.362 299.349C445.668 299.03 444.085 300.949 443.527 301.51C438.406 306.651 432.202 311.033 425.341 313.505C426.607 310.188 428.073 307.001 430.165 304.116C434.934 297.54 441.993 294.309 449.883 293.083Z"/><path fill="#7C8572" fill-opacity="0.98431373" d="M414.726 342.284C414.111 342.274 413.171 342.215 412.879 341.589C413.934 341.254 415.724 341.3 416.89 341.267C415.999 341.548 415.401 341.642 414.726 342.284Z"/><path fill="#FEFEFE" d="M329.29 153.396C334.797 154.337 338.642 153.123 343.488 150.489C347.386 158.702 351.124 166.989 354.701 175.347C356.531 179.671 358.378 183.869 359.699 188.388C361.349 193.7 359.579 200.129 361.642 205.23C363.556 209.967 366.188 214.697 368.46 219.285C374.06 230.592 379.66 241.481 383.499 253.552C384.564 256.899 387.007 261.866 385.96 265.545C385.107 267.949 383.267 268.812 381.289 269.856C376.103 272.594 365.042 268.824 362.452 274.73C360.212 279.839 362.663 287.313 364.037 292.194C354.627 290.098 352.57 291.565 344.343 296.248C350.241 295.016 356.58 292.74 361.975 296.058C362.279 296.245 362.317 296.319 362.464 296.623C361.461 297.491 355.725 296.315 354.14 296.274C347.82 296.112 342.493 297.839 336.821 300.429C337.394 298.409 337.638 297.361 337.511 295.176L337.227 294.686C333.72 294.813 333.012 307.379 332.574 310.29C333.527 308.238 334.595 306.07 335.345 303.949C340.234 301.362 355.693 294.737 360.288 301.676C360.807 302.46 360.763 303.819 360.431 304.651C357.667 310.944 347.25 310.898 351.578 319.976C354.55 326.365 361.582 331.542 358.591 339.416C354.327 350.638 339.937 351.737 329.856 353.64C315.714 356.311 301.335 358.128 287 356.178C285.812 356.016 283.35 355.514 282.354 355.525L281.472 356.1C290.854 360.402 299.313 360.753 309.436 361.076C308.233 363.603 307.382 366.149 307.094 368.942C306.297 376.669 307.64 384.479 307.152 392.235C306.513 402.397 302.825 412.575 303.86 422.814C304.114 425.325 304.579 427.92 305.215 430.361C306.397 434.898 310.001 443.911 309.454 448.287C309.314 449.4 308.916 449.974 308.024 450.619C300.952 455.733 268.274 452.364 259.256 450.871C237.841 447.325 223.195 441.483 204.691 430.29C197.159 425.734 189.882 420.862 182.229 416.473C178.149 414.133 167.622 409.994 165.372 406.659C163.16 403.38 167.57 392.712 168.827 389.018C173.988 373.846 176.738 359.841 177.642 343.868C178.167 334.584 178.053 324.957 179.625 315.789C184.899 317.469 188.739 318.207 194.135 316.39C203.09 313.374 208.279 306.487 212.794 298.709C206.436 304.966 196.732 312.307 187.405 312.373C173.106 312.474 168.394 290.71 166.725 279.636C166.277 276.664 166.512 271.72 166.45 268.561C166.098 269.055 166.144 274.922 166.104 275.991C165.736 273.87 166.606 269.484 165.352 267.816C163.113 281.99 167.721 300.213 175.944 312.021C174.714 314.499 173.879 318.132 173.334 320.819C171.421 318.427 169.08 316.327 167.074 313.938C158.885 304.186 149.296 290.707 153.131 277.327C153.885 274.696 155.345 272.166 156.252 269.583C157.108 267.143 157.33 264.471 158.682 262.235C163.011 255.365 170.199 254.748 177.414 252.944C177.678 255.185 178.136 259.053 177.872 261.136C176.751 269.973 175.123 276.595 178.748 285.265C180.564 289.608 183.417 294.085 188.069 295.926C193.232 297.969 197.296 295.757 201.932 293.723C196.233 299.275 187.112 304.724 180.168 297.854C175.388 293.124 173.284 284.593 172.761 278.109C172.476 274.581 172.961 270.593 172.96 267.03L172.59 266.88C172.575 265.919 172.766 265.002 172.053 264.388C172.073 265.843 172.196 265.75 171.973 267.354L171.762 267.485C171.77 266.462 171.758 265.44 171.728 264.417C171.255 268.045 170.697 271.69 170.482 275.432C169.569 291.276 177.591 313.473 197.531 306.385C205.576 303.525 209.918 296.089 213.289 288.641C204.643 299.279 203.624 302.883 189.33 304.79C191.284 303.739 194.394 302.404 196.479 301.365C204.741 297.246 206.462 292.258 209.697 284.212C211.789 283.017 213.366 282.32 215.557 281.351C218.986 285.277 223.581 290.359 228.936 291.698C235.039 293.223 241.33 287.483 242.866 281.863C243.046 281.201 242.8 280.839 242.455 280.338C240.165 280.486 236.983 285.735 233.477 285.804C230.926 285.854 229.741 285.612 227.382 284.452C224.471 283.021 222.144 279.38 219.884 277.68C215.598 274.455 211.509 271.524 207.408 268.071C199.097 261.072 197.633 254.842 196.697 244.549C198.839 242.482 200.956 240.388 203.047 238.269C202.952 240.364 202.945 242.022 203.004 244.119C202.946 246.61 203.16 248.5 203.795 250.932C204.933 254.837 210.671 263.706 214.53 265.778C218.037 267.661 223.176 265.925 227.011 266.387C230.537 266.812 234.545 269.648 236.935 265.171C237.604 263.917 237.113 262.35 236.671 261.126C235.353 257.103 230.226 252.556 232.325 248.233C233.392 246.037 235.594 243.83 237.197 241.946C242.661 235.521 240.808 227.364 238.162 220.055C238.103 219.896 238.043 219.738 237.98 219.581C249.366 227.111 260.806 230.507 274.463 228.342C270.907 225.546 267.052 222.938 265.032 218.817C265.221 214.923 265.344 209.753 265.815 206.018C267.202 195.018 274.734 185.799 281.879 177.8C285.99 173.199 288.542 170.236 290.848 164.394C291.468 172.65 291.093 179.388 299.746 183.453C297.171 176.244 298.253 170.742 301.514 163.882C302.016 162.853 302.543 161.836 303.095 160.833C314.118 161.52 320.415 161.048 329.29 153.396Z"/><path fill="#1B1918" d="M171.728 264.417C171.755 262.693 171.686 256.157 172.171 254.977C173.219 256.64 173.151 264.847 172.96 267.03L172.59 266.88C172.575 265.919 172.766 265.002 172.053 264.388C172.073 265.843 172.196 265.75 171.973 267.354L171.762 267.485C171.77 266.462 171.758 265.44 171.728 264.417Z"/><path fill="#1B1918" d="M166.084 262.251L166.398 262.231C166.693 263.818 166.411 265.046 166.527 266.565L166.45 268.561C166.098 269.055 166.144 274.922 166.104 275.991C165.736 273.87 166.606 269.484 165.352 267.816C165.536 265.999 165.834 264.071 166.084 262.251Z"/><path fill="#54585C" d="M166.084 262.251C166.126 261.215 166.117 260.696 166.348 259.698C167.027 260.738 166.802 265.28 166.527 266.565C166.411 265.046 166.693 263.818 166.398 262.231L166.084 262.251Z"/><path fill="#3E3A3E" d="M281.472 356.1C280.712 355.756 279.552 355.376 279.162 354.781C280.225 354.75 281.314 355.195 282.354 355.525L281.472 356.1Z"/><path fill="#2B2C2A" d="M293.304 224.447C308.372 209.948 319.628 186.829 343.702 186.81C348.657 186.708 361.085 190.893 354.602 197.552C353.939 198.233 351.474 198.021 350.671 197.771C343.012 195.387 336.498 198.242 329.817 202.34C323.728 206.075 318.718 212.361 312.781 216.688C313.156 215.451 314.13 215.507 314.261 214.471L313.702 214.034C324.988 202.807 332.39 192.652 350.139 193.038L350.625 192.27C334.779 187.647 322.265 197.35 311.471 207.941C306.239 213.075 299.914 221.052 293.304 224.447Z"/><path fill="#DEE2DF" d="M350.625 192.27C351.475 192.522 351.531 192.369 351.883 192.938C351.213 193.291 350.894 193.155 350.139 193.038L350.625 192.27Z"/><path fill="#2B2C2A" d="M316.717 225.262C322.766 218.396 328.973 211.075 337.419 207.11C339.49 206.137 342.711 204.596 344.997 205.285C347.102 207.176 343.168 210.734 342.989 212.818C342.165 222.394 342.034 234.523 328.233 226.58L329.313 225.828C332.628 227.2 336.845 228.33 338.447 223.959C339.437 221.257 339.561 216.581 338.603 213.883C337.555 210.93 333.191 213.421 331.621 214.577C327.749 217.457 324.706 221.802 320.848 224.684C327.242 229.303 338.302 238.467 341.938 225.875L342.801 225.649C343.444 234.018 341.207 237.062 336.791 243.865C337.646 240.598 338.291 237.612 339.079 234.419C326.397 234.92 326.863 230.854 316.717 225.262Z"/><path fill="#2B2C2A" d="M228.441 309.891C229.386 310.079 230.406 310.914 231.139 311.515C233.148 313.158 234.847 315.285 236.724 317.089C239.672 319.923 243.054 322.561 246.319 325.029C256.392 332.644 265.349 335.431 277.348 338.566L277.458 339.104C270.037 340.354 261.194 337.88 254.434 334.895C242.613 329.675 233.224 322.164 228.441 309.891Z"/><path fill="#2B2C2A" d="M342.576 198.307C344.506 198.187 347.387 198.051 348.196 200.213C348.206 201.187 348.081 201.301 347.624 202.205C346.217 203.293 340.741 203.395 338.599 203.895C333.109 205.174 329.205 208.494 325.273 212.464C318.034 219.774 312.582 224.4 302.437 227.368C300.247 227.888 298.049 228.38 295.845 228.841C301.758 225.653 306.231 224.957 312.002 220.471C322.735 212.128 328.201 200.88 342.576 198.307Z"/><path fill="#2B2C2A" d="M354.768 255.043L355.305 255.169L355.262 255.467C353.189 256.615 351.633 257.815 350.435 259.907C349.033 262.353 348.197 266.258 349.048 268.982C349.301 269.793 349.769 270.507 350.563 270.868C354.192 272.519 360.298 266.315 363.945 265.16C367.886 263.911 373.035 264.42 376.63 266.495C377.401 266.94 378.437 267.742 378.616 268.669C378.692 269.062 378.435 269.187 378.203 269.47C374.03 270.573 369.803 269.797 365.628 269.129C362.479 270.772 359.73 273.58 356.243 274.496C354.175 275.039 351.853 275.084 349.964 273.959C348.187 272.901 347.166 271.012 346.691 269.051C345.908 265.721 346.494 262.216 348.318 259.322C349.928 256.753 351.913 255.683 354.768 255.043Z"/><path fill="#2B2C2A" d="M237.2 402.469C237.257 402.49 237.315 402.505 237.37 402.53C242.343 404.794 259.437 419.472 261.345 423.987C260.97 423.844 260.622 423.657 260.28 423.448C257.656 421.841 255.586 419.427 253.144 417.575C247.891 413.594 238.926 409.517 237.2 402.469Z"/><path fill="#2B2C2A" d="M231.677 391.117C231.776 391.138 231.878 391.151 231.975 391.181C233.636 391.709 235.634 393.606 237.019 394.667C243.189 399.39 251.058 404.835 254.814 411.773C254.735 411.755 254.655 411.743 254.579 411.717C254.26 411.61 236.566 398.346 235.89 397.64C234.078 395.749 232.842 393.438 231.677 391.117Z"/><path fill="#2B2C2A" d="M226.823 380.44C230.605 381.954 240.069 389.642 243.055 392.714C244.998 394.714 247.297 397.481 248.446 400.038C248.37 400.008 248.291 399.983 248.216 399.95C245.205 398.593 233.263 388.883 230.877 386.385C229.23 384.66 227.631 382.71 226.823 380.44Z"/><path fill="#2B2C2A" d="M243.903 414.263C243.98 414.294 244.058 414.323 244.133 414.358C249.217 416.7 263.885 428.593 265.85 433.417C259.468 430.854 253.334 424.993 248.329 420.351C246.898 419.024 243.985 416.272 243.903 414.263Z"/><path fill="#2B2C2A" d="M217.238 356.655C217.516 356.748 217.752 356.857 217.996 357.02C222.527 360.036 236.814 372.23 237.802 377.489C235.809 376.45 233.954 374.485 232.213 373.046C226.207 368.081 220.661 363.918 217.238 356.655Z"/><path fill="#2B2C2A" d="M222.017 368.65C222.155 368.701 222.293 368.751 222.43 368.805C227.472 370.825 240.901 383.952 242.844 388.743C242.754 388.712 242.663 388.689 242.576 388.652C239.932 387.525 227.816 377.094 225.794 374.729C224.162 372.821 223.089 370.919 222.017 368.65Z"/><path fill="#2B2C2A" d="M213.604 344.927C216.604 345.908 227.266 357.934 229.739 361.028C231.228 362.891 232.521 364.881 233.77 366.911C233.444 366.872 233.218 366.802 232.917 366.645C231.421 365.868 229.757 364.068 228.493 362.938C222.879 357.922 216.204 352.198 213.604 344.927Z"/><path fill="#2B2C2A" d="M211.406 335.375C214.867 336.435 227.298 352.078 229.481 355.891C229.197 355.841 229.162 355.849 228.856 355.711C227.159 354.948 225.283 352.955 223.935 351.682C218.6 346.644 214.421 342.172 211.406 335.375Z"/><path fill="#2B2C2A" d="M161.296 263.898C161.826 265.175 161.046 272.339 161.007 274.255C160.876 280.757 161.156 287.38 161.699 293.862C161.857 295.737 162.388 297.623 162.469 299.473L162.266 299.528L161.865 298.749C158.969 288.435 156.653 273.92 161.296 263.898Z"/><path fill="#2B2C2A" d="M210.449 325.9C210.594 325.948 210.826 326.014 210.971 326.094C213.522 327.497 220.933 337.87 222.653 340.84C223.684 342.62 224.423 344.413 225.117 346.348C225.032 346.311 224.943 346.283 224.862 346.238C223.763 345.614 222.519 343.745 221.666 342.761C216.424 336.718 213.434 333.466 210.449 325.9Z"/><path fill="#2B2C2A" d="M297.838 342.325C298.512 342.244 299.144 342.071 299.754 342.444C299.682 343.042 299.62 343.076 299.183 343.462C293.95 348.083 284.385 347.232 277.939 346.937C276.469 346.822 275 346.682 273.535 346.515C277.893 346.055 282.279 345.654 286.582 344.804C290.352 344.06 294.045 342.948 297.838 342.325Z"/><defs><linearGradient id="gradient_2" gradientUnits="userSpaceOnUse" x1="335.62418" y1="273.45599" x2="338.36862" y2="275.08682"><stop offset="0" stop-color="#100D05"/><stop offset="1" stop-color="#363639"/></linearGradient></defs><path fill="url(#gradient_2)" d="M343.452 264.951L343.768 265.493C342.414 273.153 334.919 279.649 329.178 284.384L328.933 284.134C329.666 282.596 334.348 277.823 335.818 275.923C338.541 272.404 340.388 268.198 343.452 264.951Z"/><path fill="#2B2C2A" d="M311.996 344.113C312.212 344.338 312.093 344.173 312.173 344.698C312.104 344.792 312.037 344.888 311.965 344.979C308.573 349.239 296.024 349.186 290.805 349.821C290.55 349.548 290.634 349.721 290.625 349.276C292.767 348.297 296.08 348.099 298.412 347.537C302.928 346.448 307.401 344.8 311.996 344.113Z"/><path fill="#2B2C2A" d="M250.19 425.008C254.325 426.692 263.861 434.949 267.083 438.302C266.862 439.015 266.823 439.191 266.718 439.93C259.006 434.916 256.307 430.927 250.19 425.008Z"/><path fill="#1B1918" d="M323.503 344.828L323.676 344.982L323.658 345.393C318.672 349.306 310.955 349.852 304.865 349.748L304.761 349.694L304.85 349.393C307.178 348.847 309.546 348.492 311.866 347.931C315.763 346.989 319.617 345.823 323.503 344.828Z"/><path fill="#2B2C2A" d="M273.386 341.516C275.469 341.363 283.519 340.616 285.222 340.825L285.495 341.146C283.061 344.651 274.578 343.326 271.026 342.597C271.761 341.609 272.105 341.705 273.386 341.516Z"/><defs><linearGradient id="gradient_3" gradientUnits="userSpaceOnUse" x1="217.9848" y1="323.60342" x2="213.88255" y2="329.47852"><stop offset="0" stop-color="#140B0F"/><stop offset="1" stop-color="#232823"/></linearGradient></defs><path fill="url(#gradient_3)" d="M211.054 318.42C211.111 318.454 211.171 318.484 211.225 318.523C213.555 320.195 220.19 331.902 220.812 334.838C217.324 331.996 211.811 322.935 211.054 318.42Z"/><defs><linearGradient id="gradient_4" gradientUnits="userSpaceOnUse" x1="323.97333" y1="349.01581" x2="323.76575" y2="347.92694"><stop offset="0" stop-color="#191317"/><stop offset="1" stop-color="#161811"/></linearGradient></defs><path fill="url(#gradient_4)" d="M313.602 350.761C314.834 350.301 319.312 349.177 320.807 348.809C323.981 348.029 328.513 346.576 331.594 346.145L332.028 346.497L332.242 347.887C325.828 348.795 320.44 350.718 313.602 350.761Z"/><path fill="#1B1918" d="M313.702 214.034L314.261 214.471C314.13 215.507 313.156 215.451 312.781 216.688C311.374 218.726 304.155 222.949 301.652 223.98C302.939 222.865 304.608 221.773 305.957 220.668C308.59 218.51 311.139 216.272 313.702 214.034Z"/><path fill="#1B1918" d="M322.998 222.242C325.013 223.209 327.379 224.681 329.313 225.828L328.233 226.58C325.811 225.089 324.91 224.342 322.998 222.242Z"/><path fill="#3E3A3E" d="M332.028 346.497C333.517 347.634 337.254 345.379 339.253 345.622C338.507 346.54 333.62 347.528 332.242 347.887L332.028 346.497Z"/><path fill="#3E3A3E" d="M264.996 341.483C267.655 341.416 270.698 341.501 273.386 341.516C272.105 341.705 271.761 341.609 271.026 342.597C268.979 342.4 267.004 341.922 264.996 341.483Z"/><path fill="#2B2C2A" d="M267.083 438.302C268.228 439.503 269.794 441.059 270.811 442.31C269.439 441.563 267.985 440.829 266.718 439.93C266.823 439.191 266.862 439.015 267.083 438.302Z"/><path fill="#54585C" d="M341.938 225.875C342.104 225.133 342.138 225.034 342.441 224.337C342.865 224.704 342.729 224.884 342.801 225.649L341.938 225.875Z"/><path fill="#FEFEFE" d="M249.434 92.0946C254.983 91.1304 261.472 93.0536 266.293 95.5702C272.916 99.0274 274.898 98.9841 281.781 96.6011C293.171 92.6581 301.224 95.2828 311.867 99.6028C306.136 102.869 302.749 106.04 298.497 110.905C297.854 111.641 292.162 114.006 290.797 114.868C287.692 116.828 285.162 119.008 282.335 121.326C282.094 120.06 281.999 118.785 281.028 117.959C279.697 117.658 279.301 117.883 278.004 118.129C267.451 120.135 255.682 129.932 250.106 139.045C243.547 139.485 240.535 141.772 235.43 145.796C233.767 134.061 225.516 126.031 214.827 121.683C224.751 129.009 230.917 134.9 234.041 147.131C230.694 150.208 227.991 152.652 225.036 156.112C225.014 155.326 224.974 154.54 224.914 153.756C224.133 143.458 221.219 138.973 213.328 132.182C220.616 142.319 223.396 145.496 223.773 157.889C221.285 162.839 218.563 165.874 216.657 171.79C214.542 178.358 215.031 182.714 211.6 188.789C212.087 185.251 212.433 182.045 212.213 178.468C211.621 168.841 204.764 174.115 200.423 177.548C191.591 185.158 187.799 191.758 184.817 203.048C179.347 203.504 176.677 204.425 172.304 208.054C169.96 209.999 165.709 214.675 164.247 217.261C158.707 227.068 152.499 243.798 151.578 254.838C148.119 249.955 147.49 245.158 145.288 239.714C144.512 237.798 141.973 234.297 141.437 232.716C139.113 225.856 137.782 218.095 138.544 210.876C138.849 207.981 139.692 205.081 139.478 202.31C139.231 199.119 137.478 195.175 138.012 191.981C138.627 188.305 141.291 186.752 141.554 182.584C142.01 175.36 141.238 169.029 143.677 161.99C145.614 156.398 148.969 154.213 152.087 149.634C153.813 147.051 154.001 143.225 155.348 140.564C161.644 128.122 173.935 137.446 179.839 123.118L179.964 122.806C179.745 123.096 179.523 123.384 179.298 123.67C175.682 128.288 173.909 129.234 168.023 129.957C171.009 122.414 172.662 117.852 180.673 114.347C182.465 113.563 185.465 112.925 187.072 112.059C189.612 110.691 192.151 106.965 194.802 105.537C203.327 100.945 213.745 97.2091 223.419 96.3283C225.635 96.1265 229.715 97.0937 231.809 97.5892C238.313 95.8448 242.185 93.0044 249.434 92.0946Z"/><defs><linearGradient id="gradient_5" gradientUnits="userSpaceOnUse" x1="176.03188" y1="170.42953" x2="165.16414" y2="175.82327"><stop offset="0" stop-color="black"/><stop offset="1" stop-color="#2D2C2B"/></linearGradient></defs><path fill="url(#gradient_5)" d="M168.66 153.949C168.742 154.915 167.825 157.144 167.437 158.068C163.943 166.377 165.287 176.544 171.826 182.987C174.615 185.736 177.682 186.984 181.17 188.638C180.744 188.944 180.91 188.806 180.188 188.799C162.789 185.016 159.781 167.623 168.66 153.949Z"/><defs><linearGradient id="gradient_6" gradientUnits="userSpaceOnUse" x1="236.69214" y1="114.45062" x2="242.48378" y2="106.14639"><stop offset="0" stop-color="#110C0D"/><stop offset="1" stop-color="#333130"/></linearGradient></defs><path fill="url(#gradient_6)" d="M220.763 105.788C234.892 101.401 247.102 104.318 254.631 117.719L253.92 118.671C242.608 105.591 237.459 104.917 220.763 105.788Z"/><defs><linearGradient id="gradient_7" gradientUnits="userSpaceOnUse" x1="227.33386" y1="121.53098" x2="230.21382" y2="116.27847"><stop offset="0" stop-color="#1A1919"/><stop offset="1" stop-color="#383636"/></linearGradient></defs><path fill="url(#gradient_7)" d="M213.785 113.074C219.156 111.812 226.227 113.243 230.886 116.198C236.541 119.785 239.289 124.183 241.547 130.371C235.701 122.333 230.027 116.294 219.527 114.631C217.794 114.364 216.043 114.248 214.29 114.283C214.462 113.696 214.396 114 214.483 113.368L213.785 113.074Z"/><defs><linearGradient id="gradient_8" gradientUnits="userSpaceOnUse" x1="263.8389" y1="108.56257" x2="265.12405" y2="105.0718"><stop offset="0" stop-color="#1D1A1A"/><stop offset="1" stop-color="#3A3938"/></linearGradient></defs><path fill="url(#gradient_8)" d="M249.497 103.055C260.082 100.967 273.981 106.872 280.124 115.568C270.094 108.921 262.181 104.698 249.97 103.76L249.497 103.055Z"/><defs><linearGradient id="gradient_9" gradientUnits="userSpaceOnUse" x1="158.86879" y1="190.7679" x2="154.93147" y2="201.58893"><stop offset="0" stop-color="#130F0D"/><stop offset="1" stop-color="#2E2D2D"/></linearGradient></defs><path fill="url(#gradient_9)" d="M146.128 187.37C146.456 187.859 147.055 189.849 147.217 190.416C150.097 200.5 159.153 203.778 167.571 197.155C168.276 196.6 170.142 195.118 170.86 194.908C170.937 195.594 170.947 195.247 170.335 196.048C170.031 196.389 169.715 196.719 169.388 197.039C166.349 200.044 162.47 202.754 158.014 202.654C154.886 202.598 151.919 201.261 149.806 198.955C146.922 195.798 146.007 191.534 146.128 187.37Z"/><defs><linearGradient id="gradient_10" gradientUnits="userSpaceOnUse" x1="187.64302" y1="135.62376" x2="192.23259" y2="140.3165"><stop offset="0" stop-color="#171310"/><stop offset="1" stop-color="#383838"/></linearGradient></defs><path fill="url(#gradient_10)" d="M198.453 124.873L198.835 125.284C199.254 132.587 194.699 140.376 188.634 144.286C184.947 146.663 181.638 147.538 177.359 148.037L177.196 147.917L177.284 147.617C181.725 146.622 185.568 144.05 189.076 141.254C194.268 137.116 196.847 131.138 198.453 124.873Z"/><defs><linearGradient id="gradient_11" gradientUnits="userSpaceOnUse" x1="172.66159" y1="127.15091" x2="176.90071" y2="134.67981"><stop offset="0" stop-color="black"/><stop offset="1" stop-color="#31302F"/></linearGradient></defs><path fill="url(#gradient_11)" d="M186.341 119.196L186.586 119.583C183.291 135.243 175.214 137.428 161.061 140.69C160.991 140.586 160.922 140.481 160.853 140.377C168.154 136.514 177.847 135.398 182.769 126.997C184.151 124.638 185.081 121.728 186.341 119.196Z"/><defs><linearGradient id="gradient_12" gradientUnits="userSpaceOnUse" x1="182.42792" y1="132.62723" x2="186.57642" y2="136.23683"><stop offset="0" stop-color="#020000"/><stop offset="1" stop-color="#3B3A39"/></linearGradient></defs><path fill="url(#gradient_12)" d="M193.49 120.636L193.814 120.962C193.966 123.254 192.092 129.159 190.845 131.364C186.332 139.34 180.833 141.961 172.58 144.442L172.355 144.223C172.806 143.619 176.432 142.101 177.343 141.606C186.425 136.671 190.442 129.998 193.49 120.636Z"/><path fill="#2B2C2A" d="M208.392 141.329C207.93 140.713 207.556 140.381 207.553 139.629C208.243 139.696 208.172 139.861 208.806 140.5C216.861 147.838 218.966 161.24 211.19 169.631C211.001 169.836 210.809 170.039 210.616 170.239C216.634 157.741 215.721 153.127 208.392 141.329Z"/><path fill="#1B1918" d="M142.406 196.905C143.172 197.629 143.884 199.436 144.473 200.363C149.155 207.734 159.078 209.117 166.159 204.321C167.33 203.528 168.621 202.482 169.781 201.858L169.969 202.072L169.6 202.526C160.034 212.058 146.002 211.4 142.406 196.905Z"/><defs><linearGradient id="gradient_13" gradientUnits="userSpaceOnUse" x1="158.21918" y1="177.57939" x2="152.84581" y2="180.18163"><stop offset="0" stop-color="#060705"/><stop offset="1" stop-color="#2C2929"/></linearGradient></defs><path fill="url(#gradient_13)" d="M152.259 165.976L152.891 166.224C150.908 178.587 155.652 186.169 167.353 190.06C165.777 190.032 164.402 189.968 162.865 189.569C158.86 188.54 155.451 185.915 153.434 182.306C150.853 177.785 150.956 170.858 152.259 165.976Z"/><defs><linearGradient id="gradient_14" gradientUnits="userSpaceOnUse" x1="152.39136" y1="162.85321" x2="148.20865" y2="161.39961"><stop offset="0" stop-color="#050603"/><stop offset="1" stop-color="#2A2928"/></linearGradient></defs><path fill="url(#gradient_14)" d="M146.577 174.75C145.297 167.83 147.29 160.415 151.619 154.938C153.966 151.968 156.289 150.896 159.731 149.619C158.833 150.223 157.955 150.857 157.098 151.518C150.492 156.657 148.267 164.727 147.301 172.69C147.081 173.477 146.996 174.075 146.577 174.75Z"/><defs><linearGradient id="gradient_15" gradientUnits="userSpaceOnUse" x1="142.70811" y1="226.39354" x2="147.1564" y2="224.72128"><stop offset="0" stop-color="#1F1A1C"/><stop offset="1" stop-color="#080C01"/></linearGradient></defs><path fill="url(#gradient_15)" d="M143.105 211.414C143.202 211.534 143.299 211.655 143.396 211.776C142.239 219.18 143.769 227.013 147.113 233.657C147.853 235.126 149.204 237.203 149.415 238.107L149.048 238.231C142.689 230.539 139.228 221.185 143.105 211.414Z"/><path fill="#2B2C2A" d="M184.279 151.646C184.649 152.184 184.183 156.557 184.334 158.209C184.558 160.479 185.219 162.685 186.281 164.704C189.531 170.888 193.401 171.6 199.179 173.366L199.32 173.801C192.909 173.697 187.461 171.319 184.693 165.174C182.813 160.888 182.664 156.04 184.279 151.646Z"/><path fill="#2B2C2A" d="M171.883 156.933C172.01 158.086 171.443 161.909 171.429 163.498C171.37 170.042 173.868 175.659 179.236 179.529C180.43 180.391 182.872 181.545 183.664 182.34L183.188 182.486C175.74 180.158 171.036 175.201 170.281 167.193C169.974 163.934 170.465 159.911 171.883 156.933Z"/><defs><linearGradient id="gradient_16" gradientUnits="userSpaceOnUse" x1="207.71855" y1="106.07874" x2="206.78969" y2="104.05569"><stop offset="0" stop-color="#1E1618"/><stop offset="1" stop-color="#30322F"/></linearGradient></defs><path fill="url(#gradient_16)" d="M195.079 112.381C201.54 105.875 208.822 101.781 217.877 100.106C218.456 100.522 218.57 100.543 218.978 101.111C210.106 103.814 202.984 107.645 195.079 112.381Z"/><defs><linearGradient id="gradient_17" gradientUnits="userSpaceOnUse" x1="241.08954" y1="123.42297" x2="247.52481" y2="121.20123"><stop offset="0" stop-color="#010300"/><stop offset="1" stop-color="#282324"/></linearGradient></defs><path fill="url(#gradient_17)" d="M236.21 112.992C239.238 112.883 243.555 116.268 245.481 118.484C249.161 122.721 251.047 128.224 250.741 133.827C246.845 123.066 246.199 119.46 236.21 112.992Z"/><defs><linearGradient id="gradient_18" gradientUnits="userSpaceOnUse" x1="288.6268" y1="103.34212" x2="287.59366" y2="99.662201"><stop offset="0" stop-color="#0E0308"/><stop offset="1" stop-color="#222420"/></linearGradient></defs><path fill="url(#gradient_18)" d="M289.819 99.0804C294.446 98.6701 298.276 99.3113 302.299 101.662C295.889 100.39 292.971 100.343 286.446 101.511C281.835 102.637 279.871 103.364 275.654 105.337C280.388 101.424 283.702 99.9117 289.819 99.0804Z"/><path fill="#2B2C2A" d="M157.437 174.695C156.137 165.982 158.218 155.871 165.658 150.399C160.92 157.998 159.532 161.01 158.404 170.127C157.807 172.124 158.477 172.344 157.437 174.695Z"/><path fill="#2B2C2A" d="M202.935 143.453C203.072 143.551 203.232 143.655 203.334 143.79C209.14 151.504 208.619 160.679 201.236 167.052L200.692 167.295C200.692 166.397 203.564 162.921 204.132 161.664C207.505 154.195 204.647 149.891 202.935 143.453Z"/><path fill="#1B1918" d="M247.468 96.3376C256.822 94.2058 264.005 95.718 271.216 102.221L270.527 102.502C264.612 98.6975 259.989 97.2386 252.907 96.6855C250.823 96.7266 248.824 96.8209 246.753 96.582L246.811 96.2996L247.468 96.3376Z"/><path fill="#8C8890" d="M252.907 96.6855C250.823 96.7266 248.824 96.8209 246.753 96.582L246.811 96.2996L247.468 96.3376C249.274 96.7698 252.155 96.1351 252.907 96.6855Z"/><path fill="#2B2C2A" d="M177.27 165.969C177.605 166.335 178.861 168.238 179.328 168.861C181.902 172.292 184.762 174.919 189.031 175.95C191.298 176.497 193.901 176.302 195.862 176.691L195.901 177.131C187.252 179.072 179.544 174.593 177.27 165.969Z"/><path fill="#2B2C2A" d="M225.837 122.206C232.036 122.253 237.833 130.997 239.443 136.261C239.791 137.399 240.14 138.643 240.45 139.791C239.666 139.168 238.163 135.403 237.525 134.241C234.697 129.088 230.828 125.215 225.837 122.206Z"/><path fill="#2B2C2A" d="M146.49 220.834C146.665 219.664 146.337 218.505 146.779 217.784L147.581 218.054C148.32 223.134 149.491 226.341 152.166 230.77L151.134 230.698C148.906 228.024 146.644 224.413 146.49 220.834Z"/><path fill="#2B2C2A" d="M261.35 111.667C266.191 112.954 268.329 114.92 271.224 118.902C265.795 115.085 265.364 114.816 259.226 112.642L259.345 112.088C260.023 111.638 260.449 111.74 261.35 111.667Z"/><defs><linearGradient id="gradient_19" gradientUnits="userSpaceOnUse" x1="152.4281" y1="220.177" x2="154.84024" y2="219.71356"><stop offset="0" stop-color="black"/><stop offset="1" stop-color="#1A1C14"/></linearGradient></defs><path fill="url(#gradient_19)" d="M152.038 213.209L152.846 213.477C152.276 220.463 154.645 222.111 157.025 227.221L157.139 227.472C152.719 223.328 150.721 219.41 152.038 213.209Z"/><path fill="#1B1918" d="M287.874 106.561C292.019 106.254 293.218 106.776 296.643 108.781C294.933 108.503 293.225 108.078 291.423 107.791C287.734 107.705 286.269 108.039 282.62 108.755C284.633 107.722 285.718 107.195 287.874 106.561Z"/><path fill="#1B1918" d="M147.679 209.664C147.615 212.762 147.373 214.902 147.581 218.054L146.779 217.784C146.337 218.505 146.665 219.664 146.49 220.834C145.582 217.453 146.774 212.913 147.679 209.664Z"/><path fill="#1B1918" d="M157.437 174.695C158.477 172.344 157.807 172.124 158.404 170.127C158.51 171.615 158.969 178.631 158.881 179.642C158.475 179.117 157.624 175.499 157.437 174.695Z"/><path fill="#1B1918" d="M206.539 115.072C209.179 114.075 211.03 113.573 213.785 113.074L214.483 113.368C214.396 114 214.462 113.696 214.29 114.283C211.702 114.499 209.118 114.762 206.539 115.072Z"/><path fill="#1B1918" d="M217.877 100.106C219.911 99.8195 223.161 99.2657 225.122 99.246C223.023 99.9333 221.124 100.554 218.978 101.111C218.57 100.543 218.456 100.522 217.877 100.106Z"/><path fill="#1B1918" d="M254.275 111.195C256.667 111.308 258.965 111.397 261.35 111.667C260.449 111.74 260.023 111.638 259.345 112.088L259.226 112.642C257.174 112.184 256.24 111.926 254.275 111.195Z"/><path fill="#1B1918" d="M254.631 117.719C255.875 120 256.436 121.096 257.285 123.56C256.292 122.059 255.025 120.029 253.92 118.671L254.631 117.719Z"/><path fill="#1B1918" d="M152.259 165.976C152.508 164.819 152.584 164.024 153.224 163.03L153.473 163.135C153.51 164.282 153.196 165.114 152.891 166.224L152.259 165.976Z"/><path fill="#2B2C2A" d="M147.301 172.69C147.324 173.718 147.446 175.628 147.211 176.548C146.884 175.878 146.631 175.498 146.577 174.75C146.996 174.075 147.081 173.477 147.301 172.69Z"/><path fill="#2B2C2A" d="M151.134 230.698L152.166 230.77L152.854 231.79L152.754 232.075C151.856 231.668 151.787 231.487 151.134 230.698Z"/><path fill="#54585C" d="M271.216 102.221C272.008 103.018 272.366 103.41 273.038 104.308C272.35 104.107 271.165 103.017 270.527 102.502L271.216 102.221Z"/><path fill="#2B2C2A" d="M249.97 103.76C248.984 103.793 249.002 103.794 248.047 103.541L248.165 103.309L249.497 103.055L249.97 103.76Z"/><path fill="#2B2C2A" d="M152.038 213.209L152.306 212.207L152.573 212.109C152.847 212.779 152.824 212.747 152.846 213.477L152.038 213.209Z"/><path fill="#FEFEFE" d="M313.816 127.687C316.054 126.364 318.534 124.82 320.499 123.132C326.138 118.289 330.515 112.816 338.793 115.758C343.104 117.298 346.608 120.518 348.507 124.684C352.376 133.027 351.507 140.725 348.47 149.065C348.039 147.856 347.613 146.944 347.076 145.792C347.34 145.182 347.58 144.562 347.795 143.934C350.364 136.543 349.374 131.729 346.029 124.842C346.438 126.676 346.876 128.495 347.16 130.352C348.943 142.002 343.027 148.883 331.807 150.581C338.859 138.862 338.482 136.097 336.503 123.334C335.996 126.256 335.848 129.302 335.423 132.262C334.537 138.53 331.78 144.383 327.512 149.058C321.562 155.493 313.38 157.236 305.027 157.576C307.346 153.681 312.284 147.253 313.496 143.501C312.006 145.619 310.233 147.975 308.544 149.891C304.17 154.852 299.003 159.135 297.259 165.811C296.358 169.263 296.013 173.023 295.582 176.577C294.916 174.198 294.392 171.782 294.011 169.341C293.581 166.486 293.319 163.609 293.224 160.724C293.007 153.296 294.136 151.171 298.39 145.374C291.682 150.58 290.972 152.484 288.814 160.634C288.104 163.317 285.832 167.774 284.256 170.121L283.239 169.41C285.208 164.347 285.608 161.23 285.797 155.802C285.752 154.846 285.823 154.109 285.36 153.29C283.356 163.899 282.821 168.732 276.135 177.974C275.822 177.241 275.931 177.098 275.954 176.251C278.642 169.22 279.295 167.426 279.948 159.821L279.329 159.063C277.006 167.341 275.741 171.27 271.376 178.766C266.808 186.61 261.629 199.71 262.604 208.904C262.683 210.21 262.767 213.595 262.969 214.672C263.36 215.496 263.576 215.573 263.461 216.311L262.917 216.361C262.591 216.061 262.547 215.969 262.136 215.806C263.884 219.815 267.773 223.802 270.722 226.998C269.127 226.46 267.308 225.88 265.794 225.175C242.644 214.393 258.463 185.121 265.184 169.525C257.184 179.188 251.612 193.101 250.786 205.622C250.266 213.519 253.626 218.637 258.763 224.279C241.383 217.326 245.963 193.763 253.215 180.979C249.561 184.211 247.139 188.382 245.748 193.093C244.124 198.596 243.72 207.702 245.501 213.231C246.216 215.452 248.543 219.513 249.712 221.649C249.159 221.26 248.611 220.863 248.068 220.461C240.233 214.626 234.939 207.026 238.506 196.901C239.239 194.819 241.304 191.585 241 189.367C240.864 188.381 239.883 187.961 239.055 187.507C243.619 184.406 248.655 180.866 252.258 176.68C254.162 174.467 256.284 170.542 258.481 168.758C262.814 165.485 267.793 163.508 272.37 160.461C277.608 156.973 280.202 152.136 284.285 147.953C296.857 145.14 308.391 140.325 313.816 127.687Z"/><path fill="#2B2C2A" d="M262.136 215.806C253.769 203.051 260.643 187.491 270.315 177.749C269.268 179.836 267.642 182.012 266.651 184.061C262.303 193.054 259.673 200.979 261.54 210.996L261.897 211.066C262.488 210.505 262.47 209.757 262.604 208.904C262.683 210.21 262.767 213.595 262.969 214.672C263.36 215.496 263.576 215.573 263.461 216.311L262.917 216.361C262.591 216.061 262.547 215.969 262.136 215.806Z"/><path fill="#DEE2DF" d="M262.604 208.904C262.683 210.21 262.767 213.595 262.969 214.672L262.742 214.647C261.972 214.013 261.698 211.978 261.54 210.996L261.897 211.066C262.488 210.505 262.47 209.757 262.604 208.904Z"/><path fill="#3E3A3E" d="M285.36 153.29C285.661 151.815 285.885 151.427 286.528 150.121C286.179 152.167 285.983 153.734 285.797 155.802C285.752 154.846 285.823 154.109 285.36 153.29Z"/><path fill="#2B2C2A" d="M279.329 159.063C279.661 157.816 279.834 157.178 280.335 155.968C280.218 157.253 280.089 158.538 279.948 159.821L279.329 159.063Z"/><defs><linearGradient id="gradient_20" gradientUnits="userSpaceOnUse" x1="319.70935" y1="142.31369" x2="323.91324" y2="146.61241"><stop offset="0" stop-color="#201A17"/><stop offset="1" stop-color="#373736"/></linearGradient></defs><path fill="url(#gradient_20)" d="M331.137 132.54C329.911 140.988 324.637 149.483 316.291 152.633C315.161 153.059 311.488 154.264 310.437 154.079C310.87 153.576 315.075 152.146 316.456 151.177C324.022 145.872 327.52 140.851 329.62 132.231C330.139 132.346 330.613 132.447 331.137 132.54Z"/><defs><linearGradient id="gradient_21" gradientUnits="userSpaceOnUse" x1="343.32626" y1="130.76775" x2="336.59811" y2="132.68413"><stop offset="0" stop-color="#0C0B09"/><stop offset="1" stop-color="#302D2A"/></linearGradient></defs><path fill="url(#gradient_21)" d="M337.224 119.444C340.24 120.371 344.179 129.837 344.235 133.111C344.323 138.392 342.894 141.271 339.554 145.079L338.959 145.508C338.925 144.686 341.713 139.96 342.088 138.382C343.84 131.011 340.55 125.513 337.224 119.444Z"/><path fill="#2B2C2A" d="M323.338 126.413L323.62 126.658C324.012 127.693 324.192 130.374 324.177 131.523C324.093 138.159 321.304 141.544 316.92 146.017L316.618 146.183C316.654 145.345 320.905 139.666 321.743 136.915C323.079 132.534 323.141 130.959 323.338 126.413Z"/><path fill="#2B2C2A" d="M307.7 142.674L308.068 143.096C304.65 148.06 300.645 151.932 297.923 157.426C296.997 159.295 296.958 160.358 296.471 161.372C294.398 155.964 304.431 146.422 307.7 142.674Z"/><path fill="#2B2C2A" d="M272.625 165.405C273.584 168.113 267.426 176.11 265.766 178.184C265.451 176.436 271.329 167.62 272.625 165.405Z"/><path fill="#1B1918" d="M329.538 119.734C331.81 124.034 331.725 127.765 331.137 132.54C330.613 132.447 330.139 132.346 329.62 132.231C330.409 127.512 330.563 124.455 329.538 119.734Z"/><path fill="#3E3A3E" d="M307.7 142.674C308.311 141.978 308.312 141.733 309.058 141.508C308.906 142.377 308.746 142.304 308.068 143.096L307.7 142.674Z"/><path fill="#FEFEFE" d="M204.253 242.703C205.448 235.639 207.605 229.583 213.559 225.111C216.976 222.437 222.749 222.371 225.404 226.3C232.029 236.107 216.661 242.405 217.517 252.215C217.937 257.026 219.507 258.334 224.129 259.432C227.888 260.325 233.918 260.166 232.668 265.605C231.393 267.13 229.508 265.493 227.519 265.279C224.371 264.941 221.296 265.511 218.222 264.931C214.102 263.585 205.669 254.516 204.579 250.618L203.795 250.932C203.16 248.5 202.946 246.61 203.004 244.119C203.137 243.291 203.041 242.985 203.493 242.425L204.253 242.703Z"/><path fill="#1B1918" d="M203.004 244.119C203.137 243.291 203.041 242.985 203.493 242.425L204.253 242.703C203.975 245.784 203.886 247.572 204.579 250.618L203.795 250.932C203.16 248.5 202.946 246.61 203.004 244.119Z"/><path fill="#2B2C2A" d="M218.517 225.779C219.585 225.83 220.719 226.075 221.622 226.67C222.479 227.235 222.965 228.08 223.13 229.085C223.649 232.251 221.63 235.184 219.888 237.614C220.339 235.686 221.682 231.762 220.289 230.02C219.885 229.515 219.509 229.293 218.847 229.308C217.874 229.331 216.763 230.216 216.11 230.863C212.829 234.115 211.281 239.844 211.228 244.344C211.588 247.799 212.587 250.672 213.773 253.906C211.882 251.519 210.544 248.743 209.855 245.778C208.636 240.757 209.152 235.154 211.89 230.704C213.493 228.099 215.541 226.486 218.517 225.779Z"/><path fill="#99B682" d="M181.846 205.479C184.035 205.43 183.224 208.793 183.11 210.398C177.401 213.218 174.79 214.294 171.149 219.505C172.3 218.828 173.706 217.765 174.819 216.956C176.662 215.616 187.027 210.144 188.266 213.702C187.448 218.651 176.111 232.507 172.713 237.08C170.579 239.952 168.183 243.506 165.938 246.375C162.524 251.123 158.959 255.76 155.249 260.28C152.714 252.17 157.524 241.469 160.111 233.771C164.085 221.946 169.503 210.473 181.846 205.479Z"/><defs><linearGradient id="gradient_22" gradientUnits="userSpaceOnUse" x1="165.59889" y1="233.3414" x2="168.05026" y2="235.08679"><stop offset="0" stop-color="#110E0A"/><stop offset="1" stop-color="#163714"/></linearGradient></defs><path fill="url(#gradient_22)" d="M176.431 219.229L176.541 219.345C176.541 219.239 159.343 247.744 157.902 249.798L157.666 249.579C157.858 248.945 159.944 244.947 160.366 244.129C164.822 235.481 169.54 226.172 176.431 219.229Z"/><defs><linearGradient id="gradient_23" gradientUnits="userSpaceOnUse" x1="87.526794" y1="339.52936" x2="170.8968" y2="225.44363"><stop offset="0" stop-color="#9FB48B"/><stop offset="1" stop-color="#AFB6A6"/></linearGradient></defs><path fill="url(#gradient_23)" d="M100.487 173.453C100.978 173.979 100.742 174.307 100.397 175.041C96.0326 183.841 92.1319 192.467 88.5835 201.61C66.4683 258.595 83.3387 329.939 132.137 367.854C137.065 371.683 142.045 375.715 147.221 379.315C150.192 381.381 159.419 385.476 160.383 388.753C160.319 389.712 160.21 389.769 159.599 390.487C153.965 390.029 138.673 377.049 133.466 373.072C83.6246 335.022 64.1369 264.973 85.8675 206.416C89.7379 195.986 94.708 182.936 100.487 173.453Z"/><path fill="#99B682" d="M255.549 160.577C256.2 160.548 256.147 160.563 256.798 160.653L257.036 161.075C256.104 168.369 249.66 175.899 244.31 180.471C241.702 182.7 237.84 184.878 234.758 186.382C230.903 185.674 227.907 185.529 224.065 185.536C226.604 183.176 229.592 181.485 232.197 179.388C237.384 175.211 242.82 171.272 247.62 166.682C245.78 167.614 243.856 169.022 242.125 170.194C241.711 170.594 238.461 172.388 237.635 173.069C233.464 176.504 226.05 181.461 222.794 185.467C220.613 185.994 217.92 186.329 215.585 186.82C216.285 185.706 217.026 184.618 217.806 183.558C226.848 171.203 240.422 162.938 255.549 160.577Z"/><path fill="#99B682" d="M223.646 188.858C227.715 188.415 233.602 189.566 237.595 190.448C231.247 201.724 221.968 208.53 208.994 210.291C205.54 210.759 202.094 210.882 198.638 211.274C200.819 209.021 203.29 205.116 205.227 203.414C209.426 202.286 225.465 196.287 228.874 193.972C221.013 195.812 214.015 198.465 206.532 201.378C208.392 197.93 209.378 195.167 210.763 191.501C215.518 189.66 218.573 189.225 223.646 188.858Z"/><path fill="#99B682" d="M208.644 175.465C209.344 176.258 209.295 177.234 209.334 178.296C209.654 187.147 206.01 197.217 200.627 204.185C197.952 207.648 194.383 210.784 191.348 213.97L191.046 212.861C190.73 211.69 190.797 211.635 189.965 210.77C188.362 210.051 187.489 210.065 185.775 209.946C186.119 208.352 186.487 206.764 186.879 205.181C190.507 191.067 196.161 182.849 208.644 175.465Z"/><defs><linearGradient id="gradient_24" gradientUnits="userSpaceOnUse" x1="193.39407" y1="201.32889" x2="194.95459" y2="202.19768"><stop offset="0" stop-color="#101B0B"/><stop offset="1" stop-color="#304829"/></linearGradient></defs><path fill="url(#gradient_24)" d="M197.252 193.884L198.832 193.969C197.118 197.65 195.13 201.091 193.221 204.673C192.283 206.432 191.803 208.302 190.791 209.835C190.652 206.14 195.321 197.211 197.252 193.884Z"/><path fill="#0D1D0B" d="M197.252 193.884C199.344 190.456 201.747 186.647 204.225 183.474C202.746 187.243 200.829 190.467 198.832 193.969L197.252 193.884Z"/><path fill="#99B682" d="M199.154 223.601C201.545 223.362 204.001 223.461 206.403 223.454C205.45 225.52 204.508 227.602 203.452 229.617C201.9 232.577 199.803 235.126 197.413 237.45C188.8 245.822 178.57 247.197 167.574 250.584C173.335 244.581 179.377 241.053 186.404 236.764C190.184 234.645 194.238 232.838 197.677 230.171C187.957 233.424 178.946 238.988 170.53 244.732C172.394 241.585 174.312 238.502 176.621 235.655C182.763 228.081 189.479 224.638 199.154 223.601Z"/><path fill="#FEFEFE" d="M223.372 210.735C227.402 211.053 231.951 215.874 233.809 219.219C238.955 228.489 238.362 238.98 228.236 244.309C227.458 244.718 227.137 244.875 226.296 244.618C224.611 240.376 235.727 232.917 226.8 221.577C221.487 216.12 214.583 216.923 209.612 222.328C203.032 219.221 198.056 220.461 191.209 222.118C194.174 215.385 194.225 214.2 202.203 214.676C210.046 215.144 216.128 213.579 223.372 210.735Z"/><path fill="#99B682" d="M280.129 140.354C281.466 140.224 282.833 140.166 284.176 140.09C280.201 152.883 270.826 158.465 259.705 164.321L259.52 164.221C259.99 160.42 260.673 159.426 257.213 157.338C260.354 155.6 271.068 149.026 272.961 146.489C270.195 147.202 257.426 155.972 254.261 157.613C252.919 158.309 249.219 159.108 247.62 159.514C248.324 157.559 249.088 154.735 250.508 153.241C257.579 145.805 270.314 141.248 280.129 140.354Z"/><path fill="#99B682" d="M247.198 141.987C247.869 142.012 247.574 141.916 248.071 142.351C249.407 146.851 245.41 156.66 243.78 160.837C239.824 162.721 237.667 163.191 233.527 165.671C235.77 160.637 239.351 155.89 241.383 151.029C236.616 156.459 232.417 165.813 228.078 169.444C222.56 173.625 220.898 175.339 216.619 180.881C217.537 177.627 218.194 175.077 219.407 171.867C224.123 159.396 234.865 147.353 247.198 141.987Z"/><path fill="#99B682" d="M75.3741 283.578C75.455 283.728 75.5728 284.078 75.6374 284.251L75.2911 284.403C71.2549 282.933 68.3526 282.817 64.1174 280.763C58.2247 277.905 54.4552 274.643 52.1679 268.271C51.5502 266.79 49.7971 261.102 50.9567 259.75C53.1613 257.179 62.7049 262.557 64.0736 263.41C70.8781 267.652 74.785 275.399 76.4793 282.888L76.269 283.202L75.6632 283.068L75.3741 283.578Z"/><path fill="#1B3013" d="M55.2827 264.544C60.5747 271.987 68.1262 277.978 75.6632 283.068L75.3741 283.578C66.0072 279.502 59.1637 274.007 55.2827 264.544Z"/><path fill="#99B682" d="M105.376 164.996C104.505 158.938 106.064 152.78 109.713 147.866C113.726 142.465 120.271 139.277 126.803 138.208C126.6 146.226 123.424 153.772 117.899 159.654C116.166 161.498 108.768 165.829 106.38 165.757C105.625 165.534 105.985 165.716 105.376 164.996Z"/><path fill="#0D1D0B" d="M105.376 164.996C108.546 159.998 113.714 151.161 118.343 147.801C118.623 148.815 114.18 153.674 113.489 154.818C111.468 158.169 107.984 162.298 106.38 165.757C105.625 165.534 105.985 165.716 105.376 164.996Z"/><path fill="#99B682" d="M250.962 149.231C250.96 148.299 250.881 144.121 251.089 143.488C254.863 132.03 268.709 123.595 279.639 120.402C277.862 127.716 276.415 132.969 271.614 138.985C270.771 139.251 259.329 143.075 259.432 143.081C258.321 143.119 258.725 143.317 258.069 142.717C255.079 145.955 254.821 146.537 250.962 149.231Z"/><path fill="#1B3013" d="M269.647 129.722L269.61 130.668C266.073 134.682 262.994 138.995 259.432 143.081C258.321 143.119 258.725 143.317 258.069 142.717C260.364 139.538 266.754 131.998 269.647 129.722Z"/><path fill="#364928" d="M269.647 129.722C270.847 128.578 271.256 128.356 272.663 127.513C271.632 128.624 270.699 129.613 269.61 130.668L269.647 129.722Z"/><path fill="#99B682" d="M68.63 327.647C69.3759 327.563 70.1227 327.487 70.8703 327.42C79.3481 326.675 90.722 328.866 96.4566 335.841C97.4526 337.053 99.6217 339.822 99.7569 341.344C99.6263 341.595 99.3467 342.094 99.2571 342.334L99.3873 342.505C99.1719 342.863 99.2793 342.728 98.6826 342.864C92.1013 344.361 84.1938 343.926 78.313 340.462C73.4874 337.673 69.9949 333.051 68.63 327.647Z"/><path fill="#1B3013" d="M75.8783 333.274C85.0971 337.877 89.5945 339.579 99.7569 341.344C99.6263 341.595 99.3467 342.094 99.2571 342.334C90.3131 341.925 82.4362 339.401 75.8783 333.274Z"/><path fill="#99B682" d="M53.8876 223.795C63.0797 227.942 70.1939 234.288 73.1133 244.027C73.7025 245.992 74.8189 250.384 74.1219 252.319L73.5162 252.239L73.0009 252.637C72.7804 252.799 72.9367 252.705 72.4842 252.816C68.2656 250.881 61.3164 247.077 58.4249 243.628C53.2611 237.468 53.4666 231.157 53.8876 223.795Z"/><defs><linearGradient id="gradient_25" gradientUnits="userSpaceOnUse" x1="63.370884" y1="244.11337" x2="69.129112" y2="241.88663"><stop offset="0" stop-color="#132900"/><stop offset="1" stop-color="#1F3225"/></linearGradient></defs><path fill="url(#gradient_25)" d="M73.0009 252.637C72.3213 251.523 70.2339 250.401 69.0988 249.273C63.1401 243.353 61.4475 240.173 58.8485 232.382C61.5257 235.852 63.9078 240.753 66.8036 244.586C68.305 246.573 72.9084 251.197 73.5162 252.239L73.0009 252.637Z"/><path fill="#99B682" d="M99.1395 358.608C109.503 358.01 114.927 361.651 122.534 367.907C118.867 369.757 115.314 370.716 111.289 371.449C105.172 372.065 99.3975 371.345 93.9472 368.343C92.139 367.347 88.2761 365.104 87.8657 362.919C87.7436 362.269 87.9618 361.772 88.3658 361.277C90.1582 359.077 96.5153 358.789 99.1395 358.608Z"/><path fill="#1B3013" d="M95.7576 364.805C99.417 364.831 103.431 366.352 107.14 366.71C109.534 366.941 114.503 366.477 116.225 366.943L116.429 367.311L115.943 367.766C111.824 369.098 107.191 368.723 103.025 367.81C101.088 367.386 96.7907 366.421 95.7576 364.805Z"/><path fill="#99B682" d="M66.2014 185.255C67.6201 187.032 69.4096 188.814 70.8913 190.62C74.9292 195.541 77.8897 201.513 78.867 207.828C79.179 209.844 80.0889 217.917 78.9721 219.462L78.5288 219.439L78.0944 218.806L77.8001 219.144C77.8604 219.403 77.8396 219.235 77.7729 219.651C77.0412 219.522 75.9273 218.539 75.2777 218.055C71.6905 215.38 68.793 213.09 66.7466 209.05C62.752 201.164 63.567 193.407 66.2014 185.255Z"/><path fill="#1B3013" d="M68.7523 197.826L69.3813 197.222C70.646 202.617 72.2992 207.844 74.6102 212.902C75.2241 214.245 77.8785 217.958 78.0944 218.806L77.8001 219.144C71.7101 212.515 69.2619 206.64 68.7523 197.826Z"/><path fill="#1B3013" d="M68.7523 197.826C68.6402 196.93 68.5803 196.853 68.7776 195.949L69.0702 196.113L69.3813 197.222L68.7523 197.826Z"/><path fill="#99B682" d="M84.8197 282.835L84.3883 282.757C82.9931 279.051 84.4417 275.042 85.8903 271.604C89.0414 264.126 95.4208 258.607 102.671 255.092C103.178 268.95 101.321 278.233 87.4913 283.406C86.7042 283.701 85.7221 284.365 84.9065 284.274C84.9844 283.464 85.1106 283.417 85.855 282.928L84.8197 282.835Z"/><path fill="#1B3013" d="M98.8808 264.905C97.0839 271.07 94.4063 275.192 89.7491 279.577C88.5979 280.661 87.2423 282.246 85.855 282.928L84.8197 282.835C89.0048 279.053 95.9046 269.705 98.8808 264.905Z"/><path fill="#99B682" d="M116.485 175.843C118.843 175.517 123.867 175.74 126.265 175.922C125.15 178.473 124.089 180.417 122.323 182.551C116.907 189.096 113.73 191.046 105.562 191.976C103.581 192.105 101.596 192.16 99.6104 192.142C98.3926 192.129 96.4364 192.191 95.6146 191.35C95.8726 189.598 98.967 185.181 100.326 183.808C104.773 179.316 110.341 176.789 116.485 175.843Z"/><path fill="#1B3013" d="M98.569 189.373C103.131 187.335 115.325 182.638 119.92 181.874C112.02 185.826 108.712 187.626 99.9023 189.873L98.569 189.373Z"/><path fill="#364928" d="M98.569 189.373L99.9023 189.873L95.6814 191.043C96.7508 190.297 97.3277 189.805 98.569 189.373Z"/><path fill="#99B682" d="M84.2097 156.624C85.7373 158.195 87.6203 161.528 88.4488 163.577C91.3953 170.866 92.746 178.871 90.8424 186.614C90.4952 188.026 89.9803 191.479 88.3679 191.854L87.5557 191.175C83.7287 186.937 80.4769 183.265 79.5176 177.297C78.4317 170.541 80.2168 162.197 84.2097 156.624Z"/><path fill="#1B3013" d="M85.3564 171.691L85.5495 171.866C86.0053 173.131 86.1989 178.74 86.4958 180.59C86.9772 183.591 88.8483 188.446 88.7908 191.07C87.5479 189.562 86.3557 184.741 85.8821 182.706C85.0686 179.21 85.1843 175.267 85.3564 171.691Z"/><path fill="#99B682" d="M84.8795 247.465C83.9231 248.282 83.1891 248.927 82.1344 249.635C81.7143 249.174 81.8375 249.318 81.8867 248.652C82.8378 235.786 94.4565 229.411 106.159 228.904C104.637 236.298 102.193 242.16 95.6495 246.644C92.2871 248.948 84.3422 251.79 80.3267 252.28C82.0967 251.098 83.904 249.949 85.5331 248.582C85.5053 248.125 85.2139 247.912 84.8795 247.465Z"/><path fill="#0D1D0B" d="M100.251 235.384C96.5642 240.279 90.3998 244.664 85.5331 248.582C85.5053 248.125 85.2139 247.912 84.8795 247.465C89.8419 243.237 94.9696 239.207 100.251 235.384Z"/><path fill="#99B682" d="M106.027 202.597C108.564 202.24 111.313 202.676 113.776 203.278C109.794 213.645 104.373 216.826 93.9215 219.048C91.2949 219.451 88.8832 219.434 86.2348 219.489C87.7601 208.38 95.545 203.901 106.027 202.597Z"/><path fill="#1B3013" d="M105.694 210.297L106.086 210.322C106.034 210.41 105.982 210.499 105.93 210.587C100.664 214.044 93.7164 217.167 87.8524 218.232L87.5808 218.333L87.6334 217.972C89.63 216.428 102.862 211.262 105.694 210.297Z"/><path fill="#99B682" d="M118.674 311.667L119.229 312.01C120.88 315.647 121.86 320.028 121.766 324.024C121.561 332.698 117.319 337.885 111.314 343.541C113.029 339.014 117.415 328.804 116.957 324.155C114.249 328.305 112.053 337.507 110.546 342.488C110.459 342.368 110.371 342.249 110.285 342.128C107.683 338.441 107.04 333.435 107.771 329.063C109.011 321.645 112.579 316.026 118.674 311.667Z"/><path fill="#FEFEFE" d="M183.711 251.296C184.371 252.201 184.125 255.633 184.302 256.883C185.02 261.947 188.114 266.081 191.663 269.578C194.843 272.711 199.944 275.813 204.429 276.491C205.643 276.675 206.912 276.559 208.136 276.551C210.275 276.537 211.21 277.178 212.673 278.629C210.597 279.324 208.522 279.924 206.4 280.465C200.639 281.394 194.936 281.444 189.887 278.165C181.804 272.915 180.24 261.47 178.37 252.744C180.182 252.414 181.948 251.826 183.711 251.296Z"/><path fill="#99B682" d="M133.429 331.887C135.054 332.927 136.305 336.967 136.917 338.784C139.44 346.275 139.001 354.229 135.409 361.328C134.775 362.581 134.046 364.139 132.635 364.598C129.654 361.507 127.701 357.233 127.142 352.987C126.116 345.179 128.723 338.038 133.429 331.887Z"/><path fill="#1B3013" d="M134.501 348.625C134.796 348.874 134.898 348.971 134.974 349.365C135.44 351.804 133.94 357.959 132.681 360.08L132.349 359.603C131.988 355.952 133.009 351.946 134.501 348.625Z"/><path fill="#99B682" d="M104.772 284.978C105.139 284.982 105.174 285.062 105.471 285.255C106.702 288.025 106.845 291.861 106.789 294.864C106.618 303.989 101.806 310.516 95.4013 316.643C96.668 312.203 98.2012 307.816 99.6962 303.447C100.459 301.217 101.41 298.92 101.899 296.618L101.572 296.148C97.977 300.706 96.0209 309.949 94.6459 315.613C92.7553 310.832 91.1567 306.731 92.4481 301.554C94.2139 294.475 98.5391 288.672 104.772 284.978Z"/><path fill="#99B682" d="M58.8382 295.238C62.9078 295.245 66.9316 296.096 70.6561 297.736C78.7712 301.355 83.3908 307.53 86.4697 315.658C80.7944 313.542 71.1806 306.805 66.8346 302.493C66.4778 302.099 66.1573 301.795 65.7177 301.495L65.4832 301.698C65.5855 302.052 65.683 302.359 65.8429 302.693C69.2124 309.725 77.9391 313.429 84.8654 315.886C79.4237 315.603 74.049 314.481 69.4666 311.413C63.2939 307.279 60.2985 302.425 58.8382 295.238Z"/><path fill="#99B682" d="M304.57 127.85C306.664 127.664 308.211 127.747 310.262 128.08C304.125 138.203 297.572 141.796 285.949 144.737C286.624 142.835 286.94 140.846 287.106 138.843C290.334 137.283 293.999 135.224 297.208 133.526C298.745 132.625 301.014 131.582 302.653 130.769C297.62 131.819 290.757 135.116 286.155 137.564C283.455 137.134 281.842 137.062 279.148 137.292C287.615 131.044 294.098 128.889 304.57 127.85Z"/><path fill="#99B682" d="M306.161 112.053L306.745 112.138L306.944 112.604C306.137 115.885 301.141 124.463 297.833 125.695C294.811 126.821 290.97 127.866 287.772 129.061C290.945 125.999 295.328 121.809 298.151 118.571C293.932 121.205 291.78 122.974 288.269 126.42C283.341 132.019 281.326 132.091 276.459 136.545C279.376 129.807 281.903 124.228 288.097 119.947C293.991 115.873 299.157 113.395 306.161 112.053Z"/><path fill="#FEFEFE" d="M179.48 271.269C179.23 269.959 179.113 267.168 179.493 265.9L179.829 266.023L180.22 267.177C182.674 274.124 184.38 280.203 191.604 283.758C195.852 285.849 201.663 285.617 206.311 285.018C203.733 288.48 200.807 292.385 196.179 292.688C185.289 293.399 180.336 282.18 179.584 273.468C179.517 272.737 179.483 272.003 179.48 271.269Z"/><path fill="#DEE2DF" d="M179.48 271.269C179.23 269.959 179.113 267.168 179.493 265.9L179.829 266.023L180.22 267.177C179.133 268.66 179.657 269.334 179.48 271.269Z"/><path fill="#99B682" d="M308.681 115.152C312.279 113.851 315.669 112.777 319.481 112.226C333.62 110.182 316.308 123.819 312.789 125.335C308.91 124.483 306.059 124.637 302.091 125.03C304.851 123.613 307.13 122.089 309.774 120.588C312.936 118.794 315.235 117.581 318.223 115.468C314.801 116.62 310.963 118.561 307.691 120.173C307.06 120.662 307.108 120.672 306.346 120.864L306.206 120.534L306.803 119.538C307.351 118.236 308.072 116.374 308.681 115.152Z"/><path fill="#A1AF90" d="M306.803 119.538C307.161 119.827 307.285 119.98 307.691 120.173C307.06 120.662 307.108 120.672 306.346 120.864L306.206 120.534L306.803 119.538Z"/><path fill="#FEFEFE" d="M190.534 248.537C190.674 248.588 190.934 248.869 191.008 248.998C191.373 249.638 192.546 257.758 193.605 260.302C195.96 265.957 202.337 270.398 206.844 274.348C205.446 274.057 204.07 273.713 202.689 273.349C197.792 271.463 193.356 268.504 189.954 264.475C186.243 260.079 185.53 256.005 186.041 250.389C187.543 249.782 189.041 249.164 190.534 248.537Z"/><path fill="#99B682" d="M303.086 109.697C309.165 104.343 318.286 99.6307 326.399 98.8105C325.509 103.674 325.009 104.89 322.514 109.197C320.395 109.406 314.883 110.467 313.322 110.427C312.529 110.617 312.057 110.504 311.253 110.414C309.766 110.555 308.261 108.635 304.434 109.37C303.981 109.46 303.531 109.569 303.086 109.697Z"/><path fill="#1B3013" d="M318.313 104.445L318.527 105.056C316.748 107.196 315.451 108.642 313.322 110.427C312.529 110.617 312.057 110.504 311.253 110.414C313.359 109.101 316.391 106.19 318.313 104.445Z"/><path fill="#5D7447" d="M318.313 104.445L319.245 103.572L319.566 103.593C319.314 104.372 319.106 104.492 318.527 105.056L318.313 104.445Z"/><path fill="#FEFEFE" d="M327.847 106.881C329.493 107.146 334.656 109.532 335.363 111.086L335.115 111.447L333.688 111.549C332.195 111.675 329.667 112.547 328.765 112.247C328.053 110.207 328.384 110.341 326.427 109.655L326.24 109.264C326.529 108.361 327.239 107.631 327.847 106.881Z"/><path fill="#FEFEFE" d="M234.513 201.736C235.045 202.565 234.727 205.161 235.016 206.489C235.592 209.131 236.683 211.709 237.66 214.224C236.939 213.471 236.037 212.233 235.375 211.38C233.686 208.938 232.42 207.385 230.337 205.279C231.839 204.102 233.182 203.104 234.513 201.736Z"/><path fill="#FEFEFE" d="M188.439 219.446L188.644 219.665C188.838 220.334 188.804 221.052 188.523 221.697C188.015 222.859 187.294 223.261 186.144 223.651L185.931 223.325C186.618 221.946 187.56 220.707 188.439 219.446Z"/><path fill="#ABACAC" d="M222.42 248.17L222.769 248.629C222.754 250.371 222.219 251.995 221.664 253.626C221.475 253.471 221.366 253.428 221.274 253.207C220.703 251.837 221.821 249.385 222.42 248.17Z"/><path fill="#FEFEFE" d="M226.716 251.384C227.094 251.607 227.138 251.582 227.4 251.917C228.086 252.795 227.973 253.901 227.93 254.949C227.392 254.9 227.408 254.826 227.011 254.502C226.586 253.513 226.705 252.442 226.716 251.384Z"/><path fill="#DEE2DF" d="M281.26 173.79C281.97 172.32 282.59 170.908 283.239 169.41L284.256 170.121C283.417 171.526 282.372 172.607 281.26 173.79Z"/><path fill="#DEE2DF" d="M273.661 181.196C274.333 179.608 275.216 177.831 275.954 176.251C275.931 177.098 275.822 177.241 276.135 177.974C275.702 179.158 274.532 180.285 273.661 181.196Z"/><path fill="#DEE2DF" d="M81.2358 209.929L82.3277 210.603C82.0066 211.391 82.1196 211.502 81.5352 211.899C81.1457 211.343 81.2453 210.648 81.2358 209.929Z"/><path fill="#ABACAC" d="M282.427 458.253C283.246 458.242 284.092 458.106 284.734 458.527C284.138 458.94 283.713 458.935 282.997 459.042L282.427 458.253Z"/></svg>